<svg
  xmlns="http://www.w3.org/2000/svg"
  x="0px"
  y="0px"
  width="360px"
  height="360px"
  viewBox="0 0 360 360"
  enable-background="new 0 0 360 360"
>
  <switch>
    <g>
      <defs>
        <rect
          id="SVGID_1_"
          x="51"
          y="53.079"
          width="258.501"
          height="253.921"
        />
      </defs>
      <clipPath id="SVGID_2_">
        <use href="#SVGID_1_" overflow="visible" />
      </clipPath>
      <path
        clip-path="url(#SVGID_2_)"
        fill="#C36B15"
        d="M296.636,224.381c7.105,0,12.865-5.76,12.865-12.865
					c0-7.104-5.76-12.865-12.865-12.865c-7.104,0-12.865,5.761-12.865,12.865C283.771,218.621,289.531,224.381,296.636,224.381"
      />
      <path
        clip-path="url(#SVGID_2_)"
        fill="#C36B15"
        d="M228.236,230.716c5.302,0,9.6-4.298,9.6-9.6c0-5.303-4.298-9.601-9.6-9.601
					c-5.303,0-9.601,4.298-9.601,9.601C218.636,226.418,222.934,230.716,228.236,230.716"
      />
      <path
        clip-path="url(#SVGID_2_)"
        fill="#C36B15"
        d="M141.51,221.406c5.302,0,9.6-4.299,9.6-9.601s-4.298-9.6-9.6-9.6
					c-5.302,0-9.6,4.298-9.6,9.6S136.208,221.406,141.51,221.406"
      />
      <path
        clip-path="url(#SVGID_2_)"
        fill="#C36B15"
        d="M131.91,68.074c4.141,0,7.498-3.357,7.498-7.498
					c0-4.141-3.357-7.498-7.498-7.498s-7.498,3.357-7.498,7.498C124.412,64.717,127.769,68.074,131.91,68.074"
      />
      <path
        clip-path="url(#SVGID_2_)"
        fill="#C36B15"
        d="M150.3,151.806c5.302,0,9.6-4.298,9.6-9.6s-4.298-9.601-9.6-9.601
					c-5.302,0-9.6,4.299-9.6,9.601S144.998,151.806,150.3,151.806"
      />
      <path
        clip-path="url(#SVGID_2_)"
        fill="#3983B6"
        d="M67.447,185.142c0-33.02,26.768-59.788,59.787-59.788
					c33.02,0,59.788,26.769,59.788,59.788s-26.768,59.787-59.788,59.787C94.215,244.929,67.447,218.161,67.447,185.142
					 M126.3,259.876c40.759,0,73.8-33.041,73.8-73.8c0-40.76-33.041-73.8-73.8-73.8c-40.759,0-73.8,33.041-73.8,73.8
					C52.5,226.835,85.541,259.876,126.3,259.876"
      />
      <path
        clip-path="url(#SVGID_2_)"
        fill="none"
        stroke="#3983B6"
        stroke-width="3"
        d="M67.447,185.142
					c0-33.02,26.768-59.788,59.787-59.788c33.02,0,59.788,26.769,59.788,59.788s-26.768,59.787-59.788,59.787
					C94.215,244.929,67.447,218.161,67.447,185.142z M126.3,259.876c40.759,0,73.8-33.041,73.8-73.8c0-40.76-33.041-73.8-73.8-73.8
					c-40.759,0-73.8,33.041-73.8,73.8C52.5,226.835,85.541,259.876,126.3,259.876z"
      />
      <path
        clip-path="url(#SVGID_2_)"
        fill="#E14511"
        d="M105.075,132.402c0-23.404,18.973-42.377,42.377-42.377
					c23.405,0,42.378,18.973,42.378,42.377c0,23.405-18.973,42.378-42.378,42.378C124.048,174.78,105.075,155.808,105.075,132.402
					 M146.791,185.374c28.89,0,52.31-23.42,52.31-52.31c0-28.889-23.42-52.309-52.31-52.309c-28.89,0-52.31,23.42-52.31,52.309
					C94.48,161.954,117.9,185.374,146.791,185.374"
      />
      <path
        clip-path="url(#SVGID_2_)"
        fill="none"
        stroke="#E14511"
        stroke-width="5"
        d="M105.075,132.402
					c0-23.404,18.973-42.377,42.377-42.377c23.405,0,42.378,18.973,42.378,42.377c0,23.405-18.973,42.378-42.378,42.378
					C124.048,174.78,105.075,155.808,105.075,132.402z M146.791,185.374c28.89,0,52.31-23.42,52.31-52.31
					c0-28.889-23.42-52.309-52.31-52.309c-28.89,0-52.31,23.42-52.31,52.309C94.48,161.954,117.9,185.374,146.791,185.374z"
      />
      <path
        clip-path="url(#SVGID_2_)"
        fill="#F9B529"
        d="M198.611,250.028c0-23.404,18.973-42.377,42.377-42.377
					c23.405,0,42.378,18.973,42.378,42.377s-18.973,42.378-42.378,42.378C217.584,292.406,198.611,273.433,198.611,250.028
					 M240.326,303c28.89,0,52.31-23.42,52.31-52.31s-23.42-52.31-52.31-52.31c-28.891,0-52.311,23.42-52.311,52.31
					S211.436,303,240.326,303"
      />
      <path
        clip-path="url(#SVGID_2_)"
        fill="none"
        stroke="#F9B529"
        stroke-width="8"
        d="M198.611,250.028
					c0-23.404,18.973-42.377,42.377-42.377c23.405,0,42.378,18.973,42.378,42.377s-18.973,42.378-42.378,42.378
					C217.584,292.406,198.611,273.433,198.611,250.028z M240.326,303c28.89,0,52.31-23.42,52.31-52.31s-23.42-52.31-52.31-52.31
					c-28.891,0-52.311,23.42-52.311,52.31S211.436,303,240.326,303z"
      />
    </g>
  </switch>
</svg>
