<svg
  xmlns="http://www.w3.org/2000/svg"
  x="0px"
  y="0px"
  width="360px"
  height="360px"
  viewBox="0 0 360 360"
  enable-background="new 0 0 360 360"
>
  <switch>
    <g>
      <defs>
        <rect
          id="SVGID_3_"
          x="119.053"
          y="82.15"
          width="143.606"
          height="174.74"
        />
      </defs>
      <clipPath id="SVGID_4_">
        <use href="#SVGID_3_" overflow="visible" />
      </clipPath>
      <path
        clip-path="url(#SVGID_4_)"
        fill="#C36B15"
        d="M192.871,105.874c4.041-8.106,0.747-17.954-7.361-21.995
					c-8.105-4.043-17.954-0.747-21.996,7.359c-4.042,8.107-0.748,17.956,7.36,21.997
					C178.98,117.275,188.829,113.979,192.871,105.874"
      />
      <path
        clip-path="url(#SVGID_4_)"
        fill="#C36B15"
        d="M161.189,187.519c3.015-6.048,0.557-13.397-5.492-16.415
					c-6.049-3.015-13.398-0.556-16.415,5.492c-3.016,6.05-0.557,13.399,5.492,16.415S158.173,193.568,161.189,187.519"
      />
      <path
        clip-path="url(#SVGID_4_)"
        fill="#F9B529"
        d="M166.377,232.293c-26.697-13.312-37.547-45.742-24.237-72.438
					c13.31-26.695,45.741-37.546,72.438-24.238c26.697,13.311,37.547,45.743,24.238,72.438
					C225.505,234.752,193.074,245.604,166.377,232.293 M250.523,214.835c16.429-32.952,3.034-72.985-29.918-89.415
					c-32.953-16.43-72.986-3.035-89.416,29.917c-16.43,32.954-3.035,72.986,29.917,89.416
					C194.061,261.184,234.094,247.789,250.523,214.835"
      />
      <path
        clip-path="url(#SVGID_4_)"
        fill="none"
        stroke="#F9B529"
        stroke-width="8"
        d="M166.377,232.293
					c-26.697-13.312-37.547-45.742-24.237-72.438c13.31-26.695,45.741-37.546,72.438-24.238
					c26.697,13.311,37.547,45.743,24.238,72.438C225.505,234.752,193.074,245.604,166.377,232.293z M250.523,214.835
					c16.429-32.952,3.034-72.985-29.918-89.415c-32.953-16.43-72.986-3.035-89.416,29.917c-16.43,32.954-3.035,72.986,29.917,89.416
					C194.061,261.184,234.094,247.789,250.523,214.835z"
      />
    </g>
  </switch>
</svg>
