<?xml version="1.0" encoding="UTF-8" standalone="no"?>
<!-- Created with Inkscape (http://www.inkscape.org/) -->

<svg
   xmlns:dc="http://purl.org/dc/elements/1.1/"
   xmlns:cc="http://creativecommons.org/ns#"
   xmlns:rdf="http://www.w3.org/1999/02/22-rdf-syntax-ns#"
   xmlns:svg="http://www.w3.org/2000/svg"
   xmlns="http://www.w3.org/2000/svg"
   xmlns:sodipodi="http://sodipodi.sourceforge.net/DTD/sodipodi-0.dtd"
   xmlns:inkscape="http://www.inkscape.org/namespaces/inkscape"
   width="808"
   height="823"
   viewBox="0 0 213.78334 217.75209"
   version="1.1"
   id="svg8"
   inkscape:version="0.92.4 (5da689c313, 2019-01-14)"
   sodipodi:docname="cough.svg">
  <defs
     id="defs2" />
  <sodipodi:namedview
     id="base"
     pagecolor="#ffffff"
     bordercolor="#666666"
     borderopacity="1.0"
     inkscape:pageopacity="0.0"
     inkscape:pageshadow="2"
     inkscape:zoom="1.979899"
     inkscape:cx="262.82293"
     inkscape:cy="497.73923"
     inkscape:document-units="mm"
     inkscape:current-layer="layer1"
     showgrid="false"
     inkscape:window-width="1850"
     inkscape:window-height="1016"
     inkscape:window-x="70"
     inkscape:window-y="27"
     inkscape:window-maximized="1"
     fit-margin-top="0"
     fit-margin-left="0"
     fit-margin-right="0"
     fit-margin-bottom="0"
     units="px" />
  <metadata
     id="metadata5">
    <rdf:RDF>
      <cc:Work
         rdf:about="">
        <dc:format>image/svg+xml</dc:format>
        <dc:type
           rdf:resource="http://purl.org/dc/dcmitype/StillImage" />
        <dc:title></dc:title>
      </cc:Work>
    </rdf:RDF>
  </metadata>
  <g
     inkscape:label="Layer 1"
     inkscape:groupmode="layer"
     id="layer1"
     transform="translate(628.48735,-2.053341)">
    <path
       inkscape:connector-curvature="0"
       id="path1140"
       d="M -628.48735,110.92939 V 2.053341 h 106.89167 106.89167 V 110.92939 219.80543 h -106.89167 -106.89167 z"
       style="fill:#d3e5fd;stroke-width:0.26458335" />
    <path
       sodipodi:nodetypes="cccccccccccccccccsccccccccccssccccccccccccccccccccccc"
       inkscape:connector-curvature="0"
       id="path1138"
       d="m -568.89653,61.242346 c 0.49684,1.052471 -0.35345,1.906929 -0.32157,4.048477 0.0269,1.8087 0.22284,3.291237 0.63355,4.790406 0.52626,1.920835 0.55053,2.222894 0.21033,2.619478 -0.21151,0.246536 -0.45995,0.661218 -0.55242,0.92139 -0.24123,0.678516 0.42533,2.097815 1.27692,2.718181 l 0.72967,0.530717 -1.67948,0.888318 c -3.93885,2.082861 -8.35758,7.802115 -12.42457,16.08274 -2.28491,4.65188 -3.16032,6.746987 -7.33547,17.549837 -0.67847,1.7555 -1.24043,3.23748 -1.71359,4.55424 h 45.51505 v 19.84478 h 52.78231 v -6.90345 h 44.34096 c -0.52406,-1.37963 -1.45394,-3.82146 -1.82211,-4.79196 -4.62148,-12.18211 -4.46383,-11.79431 -6.35155,-15.58406 -1.74778,-3.50882 -3.70286,-6.68832 -5.79913,-9.430947 -1.65716,-2.168072 -5.8103,-6.431163 -8.06772,-8.281149 l -1.87586,-1.537374 0.90951,-1.773018 0.9095,-1.773018 -0.31574,-4.006474 c -0.25739,-3.268991 -0.2496,-4.643014 0.0439,-7.462076 0.19785,-1.900406 0.36239,-4.202022 0.36535,-5.114417 0.005,-1.545754 -0.0525,-1.711168 -0.84956,-2.423109 -1.03624,-0.925539 -2.3169,-1.006417 -4.17752,-0.263549 -0.68961,0.275323 -4.31841,1.969534 -8.06411,3.765145 -8.31665,3.986824 -15.66208,7.259505 -16.29462,7.259505 -0.50223,0 -11.80867,-4.816845 -12.18168,-5.189865 -0.12224,-0.122246 -0.0418,-0.915736 0.1788,-1.762684 1.0046,-3.856997 0.0938,-7.774265 -2.28565,-9.829373 l -0.77928,-0.672825 -2.28936,-0.104288 c -16.76688,-2.473831 -38.98282,-34.706382 -52.71489,1.330422 z m 54.118,18.85946 h 15.34273 c -3.06205,12.279292 -5.23327,15.182356 -5.23327,32.933384 h -11.84217 v 6.87969 h -25.40103 V 94.249262 h 15.34686 v -8.262543 h 11.78688 z m -112.63343,30.196604 c -0.0103,0.003 -0.0193,0.008 -0.0279,0.0171 -0.0687,0.0686 -0.0468,0.25045 0.0481,0.40411 0.25826,0.41789 0.40862,0.33651 0.23151,-0.12506 -0.0747,-0.19455 -0.18036,-0.31503 -0.25166,-0.29611 z"
       style="fill:#fcc3ae;stroke-width:0.26193753" />
    <path
       sodipodi:nodetypes="cccsccccccccscccscsccccccccccccscccccscccscccccccscccsccsccccccccccccccccccccccccccccccsccccccccssccccscccssccccccscccccsccccccccccsccccscccccsccccsscccccccccsscccccccssscsscsssccsscccsccscccsscscs"
       inkscape:connector-curvature="0"
       id="path1134"
       d="m -569.32662,64.601978 c 0.0198,2.17451 0.18388,3.510772 0.63304,5.151623 0.57155,2.087858 0.58171,2.257792 0.17208,2.951241 -0.23905,0.404702 -0.4346,0.994352 -0.4346,1.310513 0,0.57212 1.00575,1.723187 1.99471,2.283066 0.46262,0.261901 0.30354,0.401847 -1.46554,1.290876 -7.55716,49.087123 76.65113,51.298163 97.1119,11.777059 -0.16222,0 -0.0375,-0.267893 0.2775,-0.595313 0.31496,-0.327419 0.86104,-1.213839 1.21336,-1.969389 0.63918,-1.370621 0.64013,-1.382747 0.32556,-5.373314 -0.25627,-3.25052 -0.24729,-4.652883 0.0481,-7.489465 0.19989,-1.919629 0.36596,-4.244867 0.36897,-5.167127 0.005,-1.51274 -0.0672,-1.739294 -0.7369,-2.315104 -0.92128,-0.792102 -2.30949,-0.837862 -4.07624,-0.133843 -0.6966,0.277591 -3.52875,1.599018 -6.29367,2.936256 -4.67675,2.261913 -14.59963,6.829983 -16.86719,7.764902 -0.5457,0.224999 -0.99219,0.523594 -0.99219,0.663525 0,0.24721 -2.36667,-0.70856 -9.33534,-3.769281 -1.86018,-0.81702 -3.5435,-1.48518 -3.74035,-1.48518 -0.28604,0 -0.25343,-0.385019 0.16072,-1.918229 0.39028,-1.44475 0.48934,-2.473349 0.40152,-4.167188 -0.14255,-2.749381 -0.82128,-4.344863 -2.46341,-5.790343 l -1.15549,-1.016992 c -26.09239,-18.056158 -55.3847,-15.520283 -55.1465,5.061707 z m 27.1353,-15.31213 c 4.99319,0.136768 11.19801,6.226658 12.73135,9.356583 1.98036,4.059827 2.4295,3.977073 3.01005,7.055034 0.22397,1.18759 0.0644,5.101934 0.29849,5.595205 0.71692,1.510779 1.27736,5.281482 2.55535,4.276213 0.91615,-0.720629 1.0657,-1.131562 2.15387,-5.918501 0.97812,-4.30272 2.24326,-7.308945 3.43597,-8.163843 1.9463,-1.395021 4.20297,-0.58651 5.36711,1.92288 1.5231,3.283159 0.54523,8.405543 -2.26652,11.872661 -0.97962,1.207971 -3.29016,2.696612 -4.19199,2.70061 -0.94481,0.0043 -1.40772,0.599935 -1.59422,2.052588 -0.15968,1.244028 -0.12635,1.390917 0.31884,1.399915 0.34316,0.0071 0.2513,0.115988 -0.29662,0.351399 -1.08622,0.466709 -31.69113,10.638999 -37.4804,12.457636 -4.61722,1.450451 -5.21661,1.611159 -4.92321,1.317749 0.0825,-0.08256 -0.0685,-0.771303 -0.33538,-1.530654 -0.8707,-2.477349 -1.12401,-4.748207 -0.9214,-8.260995 0.10427,-1.807941 0.23861,-3.287655 0.29869,-3.287655 4.73393,-2.733241 3.62285,-1.944502 -0.16226,-4.518586 -1.81053,-4.446929 3.73629,-7.198853 -2.64583,-6.908106 l -0.45941,-1.49655 c -0.70853,-2.306992 -0.64467,-6.666698 0.12196,-8.327657 l -0.1464,-4.816695 c 9.15713,-8.306953 17.95428,-6.410017 25.13196,-7.129231 z m 26.83918,14.990701 c -0.33345,-0.0013 -0.79818,0.173545 -1.341,0.587563 -1.43925,1.097769 -2.33907,3.254727 -2.36626,5.671486 -0.0124,1.11393 0.0656,2.241952 0.17414,2.506824 0.12671,0.30938 0.41053,0.451273 0.79375,0.396875 0.55478,-0.07879 0.60742,-0.251219 0.75138,-2.465999 0.18296,-2.81478 0.47446,-3.626146 1.72703,-4.807457 1.09389,-1.031682 0.99457,-1.886445 0.26096,-1.889292 z m 43.79784,2.916618 c 0.42471,-0.01963 0.59892,0.123616 0.88057,0.553456 0.40069,0.61088 0.40029,0.892701 -0.007,3.795633 -0.33044,2.356397 -0.4078,4.302839 -0.31109,7.832079 0.1153,4.20995 0.0841,4.696222 -0.30076,4.692221 -1.12527,-0.01061 -1.20166,-0.308361 -1.14205,-4.471561 0.0313,-2.189459 0.21927,-4.754986 0.41755,-5.700945 0.29834,-1.42325 0.30086,-1.80072 0.0129,-2.18798 -0.27398,-0.368411 -0.44959,-0.406096 -0.8263,-0.178284 -0.78642,0.475588 -1.35684,3.917952 -1.38235,8.343161 -0.0159,2.75575 -0.11781,3.949505 -0.35398,4.145484 -0.18241,0.151387 -1.81338,0.418047 -3.62459,0.592728 l -3.29385,0.317809 -0.74001,-0.829405 c -0.92337,-1.033431 -0.92579,-1.401911 -0.0139,-2.69131 0.85981,-1.215742 1.20066,-1.264227 2.52956,-0.361217 1.65997,1.12799 1.89,0.897493 1.97869,-1.981277 l 0.0765,-2.487186 -0.85576,-0.88315 c -1.53268,-1.58129 -2.62538,-0.919443 -1.45108,0.879017 0.45739,0.700439 0.61898,1.236488 0.5209,1.726509 -0.12639,0.63113 -0.21491,0.68289 -0.79323,0.463021 -1.67876,-0.638262 -2.04231,-0.342688 -4.90203,3.985803 -1.6941,2.56419 -2.26692,3.153359 -3.8685,3.980119 -1.27415,0.657508 -4.55953,1.127035 -4.66689,0.666625 -0.93311,-4.001341 -2.12946,-7.164093 -2.97605,-7.866702 -0.20463,-0.169842 -0.47267,-0.496838 -0.59583,-0.727089 -0.17066,-0.31905 -0.0875,-0.427003 0.34985,-0.453202 0.6704,-0.04011 9.08611,-3.825475 17.76222,-7.989175 3.34698,-1.606222 6.52163,-2.999336 7.05487,-3.095935 0.21053,-0.03816 0.37986,-0.06271 0.52141,-0.06925 z m -40.53034,6.674012 c 0.008,0.0055 0.0122,0.0181 0.0124,0.03772 0,0.157041 -0.44717,0.927478 -0.99529,1.712039 -1.158,1.657509 -3.19845,3.301868 -4.64416,3.742407 -0.71424,0.217649 -1.1211,0.546256 -1.38648,1.120346 -0.294,0.636072 -0.34021,0.66928 -0.21342,0.151411 0.22148,-0.9046 0.53016,-1.241912 1.32034,-1.440222 1.61274,-0.404781 4.04359,-2.505028 5.3237,-4.599718 0.28583,-0.467749 0.52663,-0.762773 0.58291,-0.723987 z m -43.64953,2.926953 c -0.85566,0 -0.98006,0.729318 -0.27698,1.623158 0.72747,0.924829 0.69652,2.136931 -0.11266,4.380092 -1.1189,3.10188 -0.72201,5.096526 1.25419,6.301425 0.95173,0.580292 3.11972,0.712952 4.3031,0.263033 0.51514,-0.195861 0.67485,-0.420238 0.61236,-0.859896 -0.0786,-0.553381 -0.21623,-0.595312 -1.97404,-0.595312 -1.45719,0 -2.01191,-0.110083 -2.42362,-0.482143 -0.93454,-0.844481 -0.94168,-1.67872 -0.0388,-4.45399 0.93506,-2.87401 0.91844,-3.780211 -0.0966,-5.286499 -0.40692,-0.60384 -0.8075,-0.889868 -1.24695,-0.889868 z m 19.61689,0.149862 c -1.08693,0.04183 -3.08314,0.639752 -4.79299,1.479495 -3.14573,1.544939 -6.62623,5.338143 -5.80533,6.327264 0.52303,0.630201 0.97927,0.433597 1.81694,-0.783931 1.79568,-2.6099 4.56999,-4.423453 7.79126,-5.092713 1.03701,-0.21544 1.9908,-0.495724 2.11925,-0.622703 0.31914,-0.31546 0.009,-1.034531 -0.5364,-1.243851 -0.13928,-0.05345 -0.3419,-0.07321 -0.59273,-0.06356 z m -29.5677,1.132748 c 0.0241,0.0037 0.0531,0.04436 0.0847,0.123505 0.0764,0.191 0.0667,0.419047 -0.0212,0.506947 -0.088,0.08792 -0.15052,-0.06836 -0.13901,-0.347266 0.008,-0.192643 0.0354,-0.289258 0.0755,-0.283186 z m 0.0444,3.610115 c 0.0151,-0.01095 0.0323,0.05323 0.0506,0.20102 0.0587,0.47295 0.0587,1.246841 0,1.719791 -0.0587,0.47294 -0.10645,0.086 -0.10645,-0.859895 0,-0.650307 0.0225,-1.036786 0.0558,-1.060916 z m 81.42397,2.876825 0.9555,0.919324 c 0.52559,0.505619 1.19413,0.961475 1.48518,1.013375 0.41984,0.07494 0.5374,0.320196 0.5705,1.187008 0.023,0.600919 0.18692,1.364004 0.36432,1.695503 0.41447,0.774441 -0.10408,1.197549 -1.83038,1.493449 -1.53402,0.262919 -7.68364,0.273513 -9.35705,0.01601 -1.11784,-0.172 -1.25677,-0.138657 -1.25677,0.298691 0,0.56008 0.42072,0.969333 1.19063,1.158584 0.49276,0.12106 0.48916,0.132117 -0.0476,0.160716 -1.01766,0.05419 -1.41088,-0.641199 -1.37717,-2.435511 0.0169,-0.89911 0.0807,-1.448316 0.14211,-1.220597 0.1157,0.42935 0.81368,0.45429 3.18017,0.114721 1.40956,-0.202261 3.95287,-1.84163 5.09529,-3.284038 z m 11.53314,1.043866 c 0.34425,-7.94e-4 0.81295,0.185081 1.04128,0.413411 0.36344,0.363422 0.36826,0.502222 0.0414,1.11311 -0.43135,0.80595 -2.09731,2.005857 -3.40186,2.450497 -1.69955,0.579282 -3.96954,0.122664 -4.35271,-0.875916 -0.2804,-0.730711 -0.19632,-1.642213 0.17983,-1.954403 0.33944,-0.28171 5.21722,-1.143699 6.49211,-1.146699 z m -93.21239,0.290938 c 0.0135,-0.01939 0.0291,0.09353 0.0455,0.355016 0.0525,0.836739 0.0525,2.205958 0,3.042708 -0.0525,0.836739 -0.0956,0.152135 -0.0956,-1.521354 0,-1.150525 0.0204,-1.833676 0.0501,-1.87637 z m 93.37156,4.173387 c 0.04,-0.0016 0.0523,0.01326 0.032,0.04599 -0.39463,0.638519 -2.31659,1.210892 -4.65347,1.385961 -1.38244,0.103569 -2.81119,0.263083 -3.175,0.353984 l -0.66145,0.164848 0.66145,-0.309541 c 0.36381,-0.170238 1.79728,-0.386392 3.18534,-0.480592 1.84809,-0.125391 2.82714,-0.329089 3.65714,-0.761709 0.46755,-0.243689 0.83407,-0.394343 0.95395,-0.398944 z m -93.07235,0.957048 c 0.023,0.01606 0.0371,0.133395 0.0491,0.35605 0.0169,0.3121 0.27586,1.360099 0.57516,2.329058 0.391,1.265942 0.70744,1.827255 1.12447,1.995226 0.44532,0.179319 0.47411,0.237731 0.12351,0.250632 -0.25133,0.0092 -0.62899,-0.251347 -0.83922,-0.578776 -0.52967,-0.824863 -1.28183,-3.541946 -1.13533,-4.102076 0.0474,-0.181182 0.0793,-0.266174 0.10232,-0.250114 z m 84.0853,1.031978 c 0.41902,0 0.39148,0.04413 -0.13229,0.211873 -0.3638,0.116539 -0.89959,0.211358 -1.19063,0.211358 -0.41899,0 -0.39145,-0.04362 0.13229,-0.211358 0.36381,-0.116541 0.89959,-0.211873 1.19063,-0.211873 z m -8.86354,0.506947 c 0.21582,0 0.43161,0.01548 0.59531,0.04703 0.32742,0.06307 0.0596,0.114723 -0.59531,0.114723 -0.65479,0 -0.92274,-0.05162 -0.59531,-0.114723 0.16372,-0.03155 0.37951,-0.04703 0.59531,-0.04703 z m 5.82083,0 c 0.21582,0 0.43162,0.01548 0.59531,0.04703 0.32743,0.06307 0.0595,0.114723 -0.59531,0.114723 -0.65479,0 -0.92273,-0.05162 -0.59531,-0.114723 0.16372,-0.03155 0.37952,-0.04703 0.59531,-0.04703 z m -2.91042,0.263549 c 0.26377,0 0.52753,0.01519 0.72761,0.04548 0.40018,0.06063 0.0728,0.110069 -0.72761,0.110069 -0.80039,0 -1.12778,-0.04947 -0.7276,-0.110069 0.20011,-0.0303 0.46387,-0.04548 0.7276,-0.04548 z"
       style="fill:#ee9e9c;stroke-width:0.26458335" />
    <path
       sodipodi:nodetypes="ccccccsccccccscccccscccscsscsccsccccscccccsccccccssssscsccccssccccscccc"
       inkscape:connector-curvature="0"
       id="path1132"
       d="m -527.57258,72.01651 c 0.3748,1.971289 0.70906,2.783764 1.29346,3.193087 0.97711,0.684401 2.36901,0.46826 2.85719,-0.443899 0.19525,-0.36485 0.18785,-0.620607 -0.0253,-0.877467 -0.15651,-0.188587 -0.14481,-0.705771 0.0703,-1.871721 z m 16.30546,0.528135 c -0.59013,-0.0047 -0.59784,0.435062 -0.7922,1.131197 -0.60467,2.165789 -3.41731,4.988888 -5.66528,5.685957 -0.73106,0.2267 -1.09616,0.523623 -1.2759,1.039214 -0.16415,0.470869 -0.63601,0.899478 -1.35702,1.231448 -1.28084,0.589732 -30.61449,10.37014 -38.34391,12.784751 -4.28067,1.33722 -5.29492,1.572133 -5.62136,1.301213 -0.52102,-0.432411 -1.37927,-3.23891 -1.60765,-5.257562 -0.15222,-1.345451 -0.0166,-5.920454 0.18448,-8.2057 v -4.527889 c 0.0589,-1.083511 -0.54517,-0.77928 -1.46865,-0.77928 -0.26869,0.158938 -0.65225,0.359842 -1.21232,0.641303 -5.09965,2.56278 -10.69354,10.587958 -15.67812,22.492163 -2.53659,6.05788 -7.08357,18.06923 -7.58868,20.04632 -0.71053,2.78115 -0.89059,5.51322 -0.56637,8.59483 0.15692,1.49158 0.40825,3.93238 0.55862,5.42396 0.49961,4.95601 1.42999,6.92774 3.78736,8.02535 2.21774,1.03261 4.72117,0.90084 10.7208,-0.56379 7.07726,-1.7277 15.08112,-4.26605 19.26342,-6.10919 0.17074,-0.0752 0.42509,0.0808 0.56534,0.34675 0.14025,0.26594 2.47465,7.68697 5.1878,16.49098 5.64703,18.32425 5.58506,18.13805 6.41304,19.1363 0.61534,0.7418 0.62012,0.80386 0.62012,7.55665 0,5.47044 0.0743,6.90885 0.37672,7.32151 0.21886,0.29863 0.31616,0.81405 0.23306,1.23145 -0.0787,0.39482 -0.0661,1.02435 0.0279,1.39888 0.16206,0.6457 0.20171,0.65946 0.75912,0.26872 0.44912,-0.31485 0.94653,-0.37112 2.10892,-0.23978 4.81375,0.27858 9.60521,0.95677 14.35364,1.79473 2.97292,0.18905 12.95363,-0.10664 16.56798,-0.49093 15.67906,-1.66706 28.34381,-6.38094 42.16952,-15.69465 2.03729,-1.37242 4.15296,-2.72444 4.70152,-3.00447 1.14793,-0.58597 1.1969,-0.53005 1.31,1.48932 0.0588,1.04876 0.17646,1.3398 0.57154,1.4149 0.57602,0.10949 0.94743,-0.36413 0.95344,-1.2144 0.005,-0.78167 0.36773,-0.75516 0.90588,0.0661 0.52362,0.79915 1.4795,0.89602 1.4795,0.14986 0,-0.28144 -0.31264,-1.23336 -0.69505,-2.11512 -0.54701,-1.26132 -0.62864,-1.68312 -0.38292,-1.9792 0.40279,-0.48533 5.03619,-2.51339 8.53591,-3.73621 3.39166,-1.18506 7.98013,-2.3366 11.49129,-2.88303 3.62634,-0.56436 3.49437,-0.5884 4.0845,0.74569 0.28277,0.63924 0.67785,1.22525 0.8785,1.30225 0.40378,0.15494 0.9586,-0.28368 0.9586,-0.75809 0,-0.16757 -2.98366,-8.15092 -6.6306,-17.74052 -3.64694,-9.58961 -8.00848,-21.06703 -9.69192,-25.50542 -4.44901,-11.72979 -6.41402,-15.66344 -10.60762,-21.233332 -3.07521,-4.08446 -9.51548,-10.252088 -10.70529,-10.252088 -0.20312,0 -0.74842,0.338698 -1.21181,0.752409 -1.05319,0.940289 -2.43613,1.364258 -4.44882,1.364258 -0.85958,0 -2.75098,0.305501 -4.20285,0.67851 -3.91249,1.00516 -10.84959,0.995672 -11.86129,-0.01601 -0.23132,-0.231331 -0.41003,-1.322806 -0.50643,-3.089735 -0.16231,-2.97569 -0.82023,-5.486257 -2.06757,-7.891518 -1.37031,-2.64236 -1.82302,-2.983087 -6.85746,-5.164027 -5.75226,-2.491896 -7.85893,-3.448174 -8.72144,-3.455085 z m -36.29029,4.403349 c -1.72159,1.266984 -2.43021,2.032598 -2.27118,2.448947 0.19581,0.509423 0.78011,0.569939 1.54668,0.159678 0.29216,-0.15636 1.74319,-0.556196 3.22409,-0.888317 2.25289,-0.505259 2.69234,-0.685723 2.69234,-1.104842 0,-0.40056 -0.21201,-0.510003 -1.05833,-0.545703 -0.58208,-0.0245 -1.17001,-0.05383 -1.30638,-0.06563 -0.004,-2.64e-4 -0.004,-0.0034 -0.007,-0.0041 z"
       style="fill:#609efd;stroke-width:0.26458335" />
    <path
       inkscape:connector-curvature="0"
       id="path1128"
       d="m -541.37484,30.485196 c -2.83984,0.02384 -5.60554,0.38957 -7.70599,1.091925 -6.49228,2.170903 -15.18143,8.743923 -18.37407,13.899409 -2.48639,4.015033 -3.72349,9.001974 -3.10885,12.531534 0.35298,2.027031 1.42364,4.370276 1.99677,4.370276 0.20902,0 0.6043,-0.50601 0.8785,-1.124479 0.7574,-1.70833 1.15955,-1.934718 2.07636,-1.169437 3.97686,3.319589 9.2864,1.89874 17.00568,-4.550111 3.22165,-2.69144 5.00673,-3.581675 7.16701,-3.574976 3.8109,0.01177 6.97697,2.719806 9.74514,8.335925 1.77746,3.60612 3.56208,8.558906 4.01267,11.135755 0.42216,2.41428 0.76211,3.33004 1.4025,3.77858 0.97711,0.684401 2.36901,0.46826 2.85719,-0.443899 0.19525,-0.36485 0.18785,-0.620607 -0.0253,-0.877467 -0.22877,-0.275659 -0.10892,-1.217668 0.50075,-3.93051 1.33826,-5.954839 2.38439,-8.306286 4.3186,-9.707417 0.87291,-0.63234 1.34934,-0.78238 2.48046,-0.78238 0.77977,0 1.48402,-0.136351 1.59009,-0.307991 0.36669,-0.593302 0.4343,-4.168275 0.11937,-6.322095 -1.4788,-10.113592 -9.00391,-18.683594 -18.7849,-21.394044 -2.39821,-0.664577 -5.31211,-0.982442 -8.15196,-0.958598 z m -1.64383,36.408113 c -0.77571,5.29e-4 -1.70457,0.114462 -2.78071,0.365871 -3.21245,0.750499 -5.69422,2.701097 -5.69422,4.475179 0,0.853 0.66647,1.740945 1.5875,2.115116 0.98985,0.402129 3.60306,-0.0353 5.29477,-0.886251 5.516,-2.774614 5.78152,-6.073309 1.59266,-6.069915 z m -22.86062,4.585766 c -1.85435,0.436335 -2.81223,1.245659 -2.81223,2.385902 0,1.068602 1.19795,2.170824 2.81223,2.744536 z m 54.61321,1.364258 c -0.0217,-5.29e-4 -0.0371,0.0024 -0.046,0.0078 -0.73936,0.456951 0.12478,1.102849 3.32331,2.483569 1.88031,0.811681 3.46234,1.606304 3.51554,1.765784 0.0624,0.187209 -0.6341,0.332743 -1.96473,0.411345 -1.60885,0.09497 -3.0477,0.459235 -6.55878,1.659845 -2.47386,0.845932 -5.33136,1.922741 -6.35,2.39262 -2.67318,1.233069 -44.12864,14.945341 -45.18328,14.945341 -0.17413,0 -1.35966,0.495395 -2.63447,1.101225 -2.01126,0.955799 -2.40569,1.061894 -2.98173,0.799433 -0.58515,-0.26661 -1.38889,-1.598298 -1.82624,-3.025137 -0.0781,-0.254659 -0.39964,-0.463021 -0.71417,-0.463021 -0.52347,0 -0.56013,0.10338 -0.43408,1.221631 0.0878,0.779291 0.44001,1.65104 0.97255,2.406571 l 0.83509,1.184423 -2.24483,2.100138 c -2.95639,2.76603 -3.90081,4.2643 -2.92437,4.63899 0.28178,0.10813 0.99907,-0.48029 2.27738,-1.86759 1.02637,-1.11388 2.60978,-2.5559 3.51865,-3.20445 2.46166,-1.756615 7.12038,-3.897237 11.48302,-5.276685 7.04277,-2.226881 34.16069,-11.21824 42.34005,-14.038421 9.05795,-3.123099 10.77385,-3.53015 12.88966,-3.056659 2.77376,0.620739 5.17432,3.69829 5.93452,7.608321 0.17514,0.90102 0.27122,2.815222 0.21342,4.254002 -0.0926,2.304661 -0.2087,2.826351 -0.97462,4.382162 -1.14505,2.325931 -3.44149,4.573317 -7.07553,6.92361 -1.57504,1.01864 -6.44111,4.2447 -10.8133,7.16907 -4.37219,2.92436 -9.97344,6.66978 -12.4473,8.32301 -2.47385,1.65323 -6.93869,4.47873 -9.92187,6.2792 -5.59933,3.37943 -16.72659,9.11058 -18.63091,9.5958 -1.93873,0.494 -2.50852,0.82222 -3.06493,1.76527 l -0.54829,0.92862 -1.64382,-0.12092 c -1.64635,-0.12136 -4.06789,0.45643 -5.34851,1.27641 -0.65275,0.41796 -4.79742,1.61613 -10.05417,2.90628 -6.15292,1.51011 -8.56777,1.3487 -10.28051,-0.68678 -0.7683,-0.91307 -1.11503,-2.02714 -1.35909,-4.36304 -0.0912,-0.87312 -0.35239,-3.13368 -0.58033,-5.02347 -0.72492,-6.01045 -0.26642,-8.79943 2.70527,-16.44447 4.66939,-12.01258 5.97017,-15.12974 8.09821,-19.41019 4.12483,-8.29691 7.98439,-13.304035 11.79256,-15.299325 1.79556,-0.940768 2.1306,-1.271762 1.71153,-1.690851 -0.19081,-0.190791 -0.82252,-0.01947 -2.05569,0.557588 -2.32492,1.087969 -5.72258,4.477946 -8.11734,8.099248 -2.04362,3.090309 -4.93268,8.566525 -6.69985,12.698965 -2.21432,5.178085 -7.52637,18.993175 -8.08788,21.034375 -0.82423,2.99632 -0.90101,6.90423 -0.25011,12.7 0.61774,5.50045 0.79406,6.28129 1.74098,7.71219 1.72575,2.60778 5.08034,2.90543 12.33051,1.09348 5.71146,-1.42739 12.57796,-3.50487 16.09463,-4.86947 4.12845,-1.60197 4.11335,-1.6022 4.60747,-0.0594 0.2259,0.70534 1.91505,6.16418 3.75377,12.13052 6.46866,20.98979 6.66191,21.5763 7.51634,22.76606 l 0.81391,1.13274 v 6.63784 c 0,6.24595 0.1117,7.23426 0.7121,6.30659 0.11773,-0.1819 0.27343,-3.00963 0.34623,-6.28385 l 0.13229,-5.95313 2.21227,-0.22789 2.21227,-0.22789 3.40496,1.51515 c 1.87276,0.83318 3.58595,1.44544 3.807,1.36064 0.84123,-0.32281 0.33391,-0.94811 -1.56166,-1.92391 -1.07999,-0.55596 -1.91479,-1.08958 -1.85519,-1.18598 0.2146,-0.34721 2.68614,-0.5812 5.63377,-0.5333 2.98971,0.0486 3.74137,-0.13189 3.74137,-0.9002 0,-0.68307 -4.96642,-0.75527 -10.37921,-0.15038 -7.28967,0.81462 -7.88179,0.7485 -8.77672,-0.9834 -0.20223,-0.39136 -1.81843,-5.41456 -3.59152,-11.16263 -1.7731,-5.74807 -4.10749,-13.28227 -5.18728,-16.74265 -1.07979,-3.46038 -1.96318,-6.56614 -1.96318,-6.9019 0,-0.51846 0.42241,-0.8039 2.80293,-1.89291 3.73015,-1.70642 10.15951,-5.18258 15.05024,-8.13748 4.26169,-2.57486 8.98307,-5.66302 21.99607,-14.38569 4.52739,-3.03473 9.27952,-6.17233 10.56008,-6.9727 1.28057,-0.80036 3.47712,-2.52678 4.88136,-3.836462 1.40424,-1.30969 3.23261,-2.955491 4.0628,-3.657142 2.09384,-1.769628 2.55901,-2.78325 2.55901,-5.575369 0,-4.66173 -1.89417,-10.196676 -4.13618,-12.085568 -0.2716,-0.22882 -1.62511,-0.874377 -3.00756,-1.434536 -1.38246,-0.56016 -4.21952,-1.773489 -6.30453,-2.695959 -1.9547,-0.864817 -3.67833,-1.519005 -4.00337,-1.524974 z m -33.04811,2.099099 c -0.31426,0.01265 -0.79605,0.297492 -1.84227,1.01234 -2.76117,1.886625 -3.86931,2.925948 -3.67213,3.442169 0.19581,0.509423 0.78011,0.569939 1.54668,0.159678 0.29216,-0.15636 1.74319,-0.556196 3.22409,-0.888317 2.25289,-0.505259 2.69234,-0.685723 2.69234,-1.104842 0,-0.40056 -0.21201,-0.510003 -1.05833,-0.545703 -0.58208,-0.0245 -1.17001,-0.05383 -1.30638,-0.06563 -0.13636,-0.0118 0.0767,-0.360579 0.47336,-0.774628 0.64459,-0.672801 0.67722,-0.789633 0.30489,-1.098643 -0.11083,-0.09198 -0.21941,-0.142171 -0.36225,-0.136424 z m 44.219,3.83749 c 0.40057,0.0316 1.19206,0.510825 1.82521,1.1436 2.47827,2.476831 4.1192,10.167258 2.76262,12.948047 -0.26621,0.545711 -0.58305,0.992188 -0.70383,0.992188 -0.1208,0 -0.15433,-1.220388 -0.0749,-2.71198 0.23187,-4.355891 -0.85983,-8.159689 -3.16776,-11.037569 -0.52138,-0.65014 -0.90345,-1.226659 -0.84905,-1.281057 0.044,-0.04404 0.1153,-0.06052 0.20774,-0.05323 z m 28.6706,10.974525 c -0.12193,0.01122 -0.21921,0.08176 -0.33279,0.195336 -0.36345,0.36345 -0.20626,0.567582 1.5353,1.99471 2.66684,2.185342 6.68627,6.386324 8.66976,9.061467 3.53725,4.77068 5.69687,9.02154 9.03201,17.7772 2.98724,7.84241 9.48399,24.93527 13.25397,34.87178 1.73817,4.58129 3.31271,8.51035 3.49901,8.73125 0.18631,0.22089 0.49374,0.79281 0.68316,1.27124 0.35328,0.89234 1.00168,1.03792 0.84698,0.19017 -0.0474,-0.25986 -1.51734,-4.23566 -3.26647,-8.83564 -1.74913,-4.59998 -5.08042,-13.36446 -7.40265,-19.47633 -2.32224,-6.11188 -5.31184,-13.97 -6.64404,-17.4625 -3.38467,-8.87325 -5.96477,-13.77967 -9.94719,-18.917707 -1.9979,-2.577639 -6.09677,-6.731693 -8.33128,-8.443412 -0.94045,-0.720424 -1.32752,-0.982268 -1.59577,-0.957564 z m -12.86588,36.731613 c -0.053,-0.002 -0.094,0.003 -0.12195,0.0134 -0.85173,0.32684 -0.36298,0.98137 1.39474,1.86655 0.99064,0.49888 1.92681,1.06622 2.07998,1.26039 0.15316,0.19418 1.28811,2.49607 2.52232,5.11545 1.23421,2.61937 5.28704,11.19187 9.00617,19.05 l 6.76187,14.2875 0.17621,2.64583 c 0.0969,1.45521 0.23583,2.85418 0.30903,3.10885 0.30438,1.05874 0.8798,0.11535 0.8878,-1.45521 0.005,-1.02628 0.41444,-0.90435 1.21336,0.36122 1.06846,1.69256 1.32506,0.91047 0.38292,-1.16737 -0.43936,-0.96899 -0.79892,-1.9126 -0.79892,-2.09703 0,-0.29836 -16.02465,-34.34016 -18.54047,-39.38623 l -1.00045,-2.00608 -1.9942,-0.86971 c -0.95988,-0.41851 -1.90709,-0.71699 -2.27841,-0.7276 z m -42.60411,50.19228 c -0.39776,0 -0.30506,0.56744 0.18035,1.10381 0.43964,0.48579 2.47271,0.70924 2.47271,0.27182 0,-0.22532 -2.21858,-1.37563 -2.65306,-1.37563 z m -16.9261,11.1125 c -0.14553,0 -0.26459,0.11906 -0.26459,0.26458 0,0.14552 0.11906,0.26459 0.26459,0.26459 0.14552,0 0.26458,-0.11907 0.26458,-0.26459 0,-0.14552 -0.11906,-0.26458 -0.26458,-0.26458 z"
       style="fill:#2176f2;stroke-width:0.79375;stroke:#2176f2;stroke-opacity:1;stroke-miterlimit:4;stroke-dasharray:none" />
    <path
       inkscape:connector-curvature="0"
       id="path1126"
       d="m -563.27786,82.20542 c -0.0956,-0.15469 0.0415,-0.51914 0.30459,-0.8099 0.41157,-0.45478 0.42444,-0.56465 0.0921,-0.78631 -0.2125,-0.14171 -0.82829,-0.19329 -1.36843,-0.11463 -0.77146,0.11236 -1.03702,0.0403 -1.23831,-0.33576 -0.50278,-0.93945 0.0358,-1.20632 2.05588,-1.01857 2.46445,0.22904 4.79471,1.09068 4.79471,1.7729 0,0.336 -0.24359,0.55847 -0.7276,0.6645 -0.40018,0.0877 -1.25483,0.32806 -1.89922,0.53421 -1.402,0.44852 -1.78336,0.46624 -2.01369,0.0936 z m 13.4493,-2.80873 c -0.19803,-0.51606 0.91016,-1.55478 3.67216,-3.44197 1.52177,-1.03978 1.84961,-1.17002 2.20426,-0.87569 0.37233,0.30901 0.33996,0.42578 -0.30463,1.09858 -0.39669,0.41405 -0.60967,0.76248 -0.47331,0.77428 0.13637,0.0118 0.72419,0.0416 1.30627,0.0661 0.84632,0.0357 1.05834,0.14503 1.05834,0.54559 0,0.41912 -0.43966,0.59951 -2.69255,1.10477 -1.4809,0.33212 -2.93159,0.73179 -3.22375,0.88815 -0.76679,0.41038 -1.35115,0.34998 -1.54679,-0.15986 z m -15.3312,-2.207819 c -2.28205,-0.30068 -3.53175,-1.958771 -3.53175,-3.323751 0,-1.2307 1.11395,-2.07709 3.26882,-2.48369 2.86023,-0.53968 5.27023,0.19405 6.13591,1.86809 0.494,0.95528 0.289,1.83597 -0.62875,2.70122 -0.64132,0.60464 -2.43054,1.30077 -3.08744,1.20123 -0.68006,0.04482 -1.50195,0.123171 -2.15679,0.0369 z m 38.8807,-1.979061 c -0.64039,-0.44854 -0.98031,-1.36439 -1.40247,-3.77867 -0.45059,-2.57685 -2.23531,-7.52959 -4.01277,-11.13571 -2.76817,-5.61612 -5.93423,-8.324441 -9.74513,-8.336223 -2.16028,-0.0067 -3.94557,0.883903 -7.16722,3.575343 -7.71928,6.44885 -13.02875,7.86937 -17.00561,4.54978 -0.91681,-0.76528 -1.3189,-0.5388 -2.0763,1.16953 -0.2742,0.61847 -0.66957,1.12448 -0.87859,1.12448 -0.57313,0 -1.64366,-2.34309 -1.99665,-4.37012 -0.61464,-3.52956 0.62257,-8.516499 3.10896,-12.531532 3.19264,-5.155486 11.88189,-11.728673 18.37417,-13.899577 4.2009,-1.404707 11.06161,-1.462315 15.85804,-0.133157 9.78099,2.71045 17.30561,11.280424 18.78441,21.394016 0.31493,2.15382 0.2476,5.72852 -0.11909,6.32182 -0.10607,0.17164 -0.81056,0.30814 -1.59033,0.30814 -1.13112,0 -1.60732,0.15025 -2.48024,0.78259 -1.9342,1.40113 -2.98026,3.7525 -4.31852,9.70734 -0.60967,2.71284 -0.72971,3.65471 -0.50094,3.93037 0.21317,0.25686 0.22055,0.51264 0.0253,0.87749 -0.48818,0.91216 -1.8799,1.12849 -2.85701,0.44409 z M -549.9061,73.8493 c -0.92103,-0.37417 -1.5875,-1.26216 -1.5875,-2.11516 0,-1.77408 2.482,-3.72461 5.69445,-4.47511 6.88728,-1.60902 7.72556,2.41559 1.18807,5.70402 -1.69171,0.85095 -4.30517,1.28838 -5.29502,0.88625 z"
       style="fill:#2e3563;stroke:#2e3563;stroke-width:0.79374999;stroke-miterlimit:4;stroke-dasharray:none;stroke-opacity:1"
       sodipodi:nodetypes="ccccccscscccsccccscccccscccccccccsccsssssscssscccccsssc" />
  </g>
</svg>
