<svg xmlns:svg="http://www.w3.org/2000/svg" 
   xmlns="http://www.w3.org/2000/svg" x="0px" y="0px" width="360px" height="360px" viewBox="0 0 360 360" enable-background="new 0 0 360 360">
   <switch transform="matrix(1.2911046,0,0,1.2911046,-52.289502,-52.324067)">
      <g >
         <path stroke-miterlimit="10" d="m 60.044,265.271 42.91,32.021 L 143,315.336 179.685,244.5 c 48.174,13.541 45.059,14.916 66.702,22.371 16.17,5.57 48.311,21.569 51.113,-19.871 4.87,-72.014 -1.5,-86 -1.5,-86 0,0 -6.5,-29.5 -15.5,-11.961 l -19.125,74.184 -109.625,-56 c 0,0 -27.75,-16.223 -48.25,7.763 z"   style="fill:#020101;stroke:#231f20;stroke-miterlimit:10" />
         <path d="m 182.75,43.5 c -32.447,0 -58.75,26.303 -58.75,58.75 0,32.447 26.303,58.75 58.75,58.75 8.193,0 15.99,-1.688 23.075,-4.717 -0.003,-0.01 -0.006,-0.021 -0.009,-0.031 -2.268,0.218 -16.207,-8.414 -6.066,-13.002 10.445,-4.725 18.479,5.646 18.563,5.755 C 232.4,138.273 241.5,121.327 241.5,102.25 241.5,69.803 215.197,43.5 182.75,43.5 Z"   style="fill:#020101" />
         <path d="m 217.67,171.577 c 0.432,1.384 -0.338,2.856 -1.723,3.289 v 0 c -1.383,0.433 -2.855,-0.338 -3.289,-1.722 l -1.828,-5.846 c -0.432,-1.384 0.338,-2.856 1.723,-3.289 v 0 c 1.383,-0.433 2.855,0.338 3.289,1.722 z"   style="fill:#020101" />
         <path d="m 219.795,160.48 c 0.432,1.384 -0.338,2.856 -1.723,3.289 v 0 c -1.383,0.433 -2.855,-0.338 -3.289,-1.722 l -1.828,-5.846 c -0.432,-1.384 0.338,-2.856 1.723,-3.289 v 0 c 1.383,-0.433 2.855,0.338 3.289,1.722 z"   style="fill:#020101" />
         <path d="m 233.977,163.803 c -0.72,0.927 -2.055,1.095 -2.981,0.375 l -7.799,-6.058 c -0.927,-0.72 -1.095,-2.055 -0.374,-2.982 v 0 c 0.72,-0.927 2.055,-1.095 2.981,-0.375 l 7.799,6.058 c 0.926,0.721 1.094,2.055 0.374,2.982 z"   style="fill:#020101" />
         <path d="m 260.607,171.945 c -0.717,1.119 -2.205,1.445 -3.324,0.728 l -6.788,-4.351 c -1.119,-0.717 -1.444,-2.206 -0.728,-3.324 v 0 c 0.717,-1.119 2.205,-1.445 3.324,-0.728 l 6.788,4.351 c 1.12,0.717 1.445,2.205 0.728,3.324 z"   style="fill:#020101" />
         <path d="m 230.453,173.558 c 0.563,1.223 0.029,2.67 -1.193,3.234 v 0 c -1.223,0.563 -2.671,0.029 -3.234,-1.194 l -2.354,-5.108 c -0.563,-1.223 -0.029,-2.67 1.193,-3.234 v 0 c 1.223,-0.563 2.671,-0.029 3.234,1.194 z"   style="fill:#020101" />
         <path d="m 245,185.25 c 0,2.969 -2.406,5.375 -5.375,5.375 h -0.875 c -2.969,0 -5.375,-2.406 -5.375,-5.375 v 0 c 0,-2.969 2.406,-5.375 5.375,-5.375 h 0.875 c 2.969,0 5.375,2.406 5.375,5.375 z"   style="fill:#020101" />
         <path d="m 222.733,193.4 c 0.573,1.025 0.206,2.319 -0.817,2.892 v 0 c -1.025,0.573 -2.319,0.206 -2.893,-0.817 l -2.378,-4.256 c -0.573,-1.025 -0.206,-2.319 0.817,-2.892 v 0 c 1.025,-0.573 2.319,-0.206 2.893,0.817 z"   style="fill:#020101" />
         <path d="m 233.722,199.216 c 0.573,1.024 0.206,2.319 -0.817,2.892 v 0 c -1.025,0.572 -2.319,0.207 -2.893,-0.818 l -2.378,-4.255 c -0.573,-1.024 -0.206,-2.319 0.817,-2.892 v 0 c 1.025,-0.572 2.319,-0.207 2.893,0.818 z"   style="fill:#020101" />
         <path d="m 257.509,201.922 c 0.585,0.895 0.335,2.096 -0.562,2.682 v 0 c -0.895,0.585 -2.096,0.334 -2.682,-0.562 l -3.899,-5.964 c -0.585,-0.895 -0.335,-2.096 0.562,-2.682 v 0 c 0.895,-0.585 2.096,-0.334 2.682,0.562 z"   style="fill:#020101" />
         <path d="m 258.759,216.422 c 0.585,0.895 0.335,2.096 -0.562,2.682 v 0 c -0.895,0.585 -2.096,0.334 -2.682,-0.562 l -3.899,-5.964 c -0.585,-0.895 -0.335,-2.096 0.562,-2.682 v 0 c 0.895,-0.585 2.096,-0.334 2.682,0.562 z"   style="fill:#020101" />
         <path d="m 260.372,186.584 c -0.745,0.768 -1.972,0.785 -2.739,0.039 l -4.215,-4.092 c -0.768,-0.746 -0.785,-1.973 -0.041,-2.74 v 0 c 0.746,-0.767 1.973,-0.785 2.74,-0.04 l 4.215,4.092 c 0.768,0.747 0.785,1.973 0.04,2.741 z"   style="fill:#020101" />
         <path d="m 245.56,175.42 c -0.745,0.767 -1.972,0.785 -2.739,0.04 l -4.215,-4.093 c -0.768,-0.745 -0.785,-1.972 -0.041,-2.74 v 0 c 0.746,-0.767 1.973,-0.785 2.74,-0.04 l 4.215,4.093 c 0.767,0.745 0.785,1.972 0.04,2.74 z"   style="fill:#020101" />
         <path d="m 246.125,201.875 c 0,2.071 -1.679,3.75 -3.75,3.75 h -0.625 c -2.071,0 -3.75,-1.679 -3.75,-3.75 v 0 c 0,-2.071 1.679,-3.75 3.75,-3.75 h 0.625 c 2.071,0 3.75,1.679 3.75,3.75 z"   style="fill:#020101" />
         <path d="m 212.835,183.188 c 0,2.071 -1.679,3.75 -3.75,3.75 h -0.625 c -2.071,0 -3.75,-1.679 -3.75,-3.75 v 0 c 0,-2.071 1.679,-3.75 3.75,-3.75 h 0.625 c 2.071,0 3.75,1.678 3.75,3.75 z"   style="fill:#020101" />
         <path d="m 227.51,183.188 c 0,2.071 -1.679,3.75 -3.75,3.75 h -0.625 c -2.071,0 -3.75,-1.679 -3.75,-3.75 v 0 c 0,-2.071 1.679,-3.75 3.75,-3.75 h 0.625 c 2.071,0 3.75,1.678 3.75,3.75 z"   style="fill:#020101" />
      </g>
   </switch>

</svg>