<?xml version="1.0" encoding="UTF-8" standalone="no"?>
<svg xmlns:svg="http://www.w3.org/2000/svg" 
   xmlns="http://www.w3.org/2000/svg" x="0px" y="0px" width="293.54901" height="240.993" viewBox="0 0 293.54901 240.993" enable-background="new 0 0 400 400" xml:space="preserve">
   <g id="Layer_3" transform="translate(-54.503,-79.502)">
      <g id="g193">
         <path d="m 143.994,199.999 c 0,17.095 13.908,31.002 31.004,31.002 v -6.988 c -13.151,0 -23.849,-10.699 -23.849,-23.849 0,-13.15 10.698,-23.849 23.849,-23.849 v -7.32 c -17.096,0 -31.004,13.908 -31.004,31.004 z" id="path177"  style="fill:none" />
         <path d="m 110.083,202.266 c 0,35.794 29.121,64.915 64.915,64.915 7.193,0 14.109,-1.194 20.581,-3.364 l -20.581,-11.882 v -1.67 c -27.718,0 -50.268,-22.549 -50.268,-50.266 0,-27.718 22.55,-50.268 50.268,-50.268 v -1.67 l 15.349,-8.861 c -4.924,-1.199 -10.061,-1.85 -15.349,-1.85 -35.794,0 -64.915,29.121 -64.915,64.916 z" id="path179"  style="fill:none" />
         <path d="m 73.766,199.999 c 0,55.82 45.413,101.232 101.232,101.232 20.7,0 39.966,-6.25 56.019,-16.956 l -14.896,-8.6 c -12.171,6.845 -26.194,10.769 -41.123,10.769 -46.417,0 -84.179,-37.762 -84.179,-84.179 0,-46.417 37.762,-84.179 84.179,-84.179 13.278,0 25.841,3.102 37.021,8.601 l 18.995,-10.967 c -16.052,-10.705 -35.317,-16.954 -56.017,-16.954 -55.819,0 -101.231,45.413 -101.231,101.233 z" id="path181"  style="fill:none" />
         <path d="m 162.875,200.164 c 0,6.685 5.438,12.125 12.124,12.125 v -24.247 c -6.686,-0.001 -12.124,5.437 -12.124,12.122 z" id="path183"  style="fill:none" />
         <path d="m 174.998,301.231 c -55.82,0 -101.232,-45.412 -101.232,-101.232 0,-55.82 45.413,-101.233 101.232,-101.233 20.699,0 39.965,6.25 56.017,16.954 l 18.258,-10.541 C 228.793,89.1 202.996,79.502 174.999,79.502 c -66.442,0 -120.496,54.055 -120.496,120.497 0,66.441 54.054,120.496 120.496,120.496 27.998,0 53.796,-9.6 74.276,-25.679 l -18.258,-10.541 c -16.053,10.706 -35.319,16.956 -56.019,16.956 z" id="path185"  style="fill:#e14511" />
         <path d="m 174.998,267.181 c -35.794,0 -64.915,-29.121 -64.915,-64.915 0,-35.794 29.121,-64.916 64.915,-64.916 5.288,0 10.425,0.651 15.349,1.85 l 21.673,-12.513 c -11.18,-5.499 -23.743,-8.601 -37.021,-8.601 -46.417,0 -84.179,37.763 -84.179,84.179 0,46.417 37.762,84.179 84.179,84.179 14.929,0 28.952,-3.924 41.123,-10.769 L 195.58,263.816 c -6.473,2.17 -13.389,3.365 -20.582,3.365 z" id="path187"  style="fill:#3983b6" />
         <path d="m 143.994,199.999 c 0,-17.096 13.908,-31.004 31.004,-31.004 v -19.264 c -27.718,0 -50.268,22.55 -50.268,50.268 0,27.717 22.55,50.266 50.268,50.266 v -19.264 c -17.096,0 -31.004,-13.907 -31.004,-31.002 z" id="path189"  style="fill:#f9b529" />
         <path d="m 162.875,200.164 c 0,-6.685 5.438,-12.123 12.124,-12.123 v -11.726 c -13.151,0 -23.849,10.699 -23.849,23.849 0,13.15 10.698,23.849 23.849,23.849 v -11.725 c -6.686,0 -12.124,-5.439 -12.124,-12.124 z" id="path191"  style="fill:#152d4d" />
      </g>
   </g>
   <g id="g1447" transform="translate(-54.503,-79.502)">
      <g id="g236">
         <path d="m 199.349,203.543 5.164,1.638 c -0.791,2.88 -2.108,5.018 -3.949,6.415 -1.842,1.397 -4.178,2.096 -7.009,2.096 -3.503,0 -6.382,-1.195 -8.638,-3.59 -2.255,-2.393 -3.383,-5.664 -3.383,-9.815 0,-4.391 1.134,-7.8 3.401,-10.229 2.267,-2.429 5.248,-3.644 8.943,-3.644 3.227,0 5.848,0.954 7.863,2.861 1.199,1.127 2.099,2.747 2.699,4.858 l -5.272,1.26 c -0.313,-1.368 -0.963,-2.447 -1.952,-3.239 -0.99,-0.792 -2.192,-1.188 -3.608,-1.188 -1.955,0 -3.542,0.702 -4.759,2.105 -1.218,1.403 -1.827,3.677 -1.827,6.82 0,3.335 0.6,5.71 1.8,7.125 1.199,1.416 2.759,2.124 4.679,2.124 1.415,0 2.633,-0.45 3.652,-1.35 1.019,-0.9 1.752,-2.315 2.196,-4.247 z" id="path220"  style="fill:#39a5e6" />
         <path d="m 208.004,200.214 c 0,-2.687 0.401,-4.942 1.205,-6.766 0.601,-1.344 1.419,-2.549 2.457,-3.617 1.037,-1.067 2.174,-1.859 3.409,-2.375 1.644,-0.696 3.539,-1.044 5.687,-1.044 3.887,0 6.997,1.206 9.33,3.617 2.333,2.411 3.5,5.764 3.5,10.059 0,4.259 -1.158,7.591 -3.473,9.996 -2.315,2.406 -5.411,3.607 -9.285,3.607 -3.923,0 -7.042,-1.195 -9.357,-3.59 -2.316,-2.392 -3.473,-5.688 -3.473,-9.887 z m 5.488,-0.18 c 0,2.987 0.689,5.252 2.069,6.793 1.379,1.542 3.131,2.313 5.254,2.313 2.124,0 3.866,-0.765 5.228,-2.294 1.362,-1.529 2.042,-3.824 2.042,-6.883 0,-3.023 -0.662,-5.278 -1.988,-6.766 -1.325,-1.487 -3.086,-2.231 -5.281,-2.231 -2.195,0 -3.965,0.753 -5.308,2.258 -1.344,1.505 -2.016,3.776 -2.016,6.81 z" id="path222"  style="fill:#39a5e6" />
         <path d="m 244.479,213.242 -9.429,-26.379 h 5.775 l 6.676,19.524 6.46,-19.524 h 5.65 l -9.447,26.379 z" id="path224"  style="fill:#39a5e6" />
         <path d="m 262.167,213.242 v -26.379 h 5.326 v 26.379 z" id="path226"  style="fill:#39a5e6" />
         <path d="m 272.549,186.863 h 9.735 c 2.195,0 3.868,0.168 5.02,0.504 1.548,0.456 2.873,1.266 3.978,2.429 1.104,1.164 1.943,2.588 2.519,4.273 0.576,1.686 0.864,3.764 0.864,6.235 0,2.171 -0.271,4.043 -0.81,5.614 -0.66,1.92 -1.602,3.474 -2.825,4.661 -0.924,0.899 -2.172,1.602 -3.743,2.105 -1.176,0.372 -2.747,0.558 -4.715,0.558 H 272.55 v -26.379 z m 5.326,4.462 v 17.473 h 3.977 c 1.487,0 2.562,-0.084 3.222,-0.252 0.863,-0.216 1.58,-0.582 2.15,-1.098 0.569,-0.516 1.034,-1.364 1.395,-2.546 0.359,-1.182 0.539,-2.793 0.539,-4.832 0,-2.039 -0.18,-3.604 -0.539,-4.696 -0.36,-1.092 -0.864,-1.943 -1.512,-2.555 -0.648,-0.612 -1.47,-1.026 -2.466,-1.242 -0.743,-0.168 -2.201,-0.252 -4.372,-0.252 z" id="path228"  style="fill:#39a5e6" />
         <path d="m 298.568,206.207 v -5.057 h 9.933 v 5.057 z" id="path230"  style="fill:#39a5e6" />
         <path d="m 323.274,213.242 h -5.056 v -19.056 c -1.848,1.727 -4.025,3.005 -6.532,3.833 v -4.588 c 1.319,-0.432 2.753,-1.251 4.301,-2.457 1.548,-1.206 2.609,-2.612 3.185,-4.219 h 4.103 v 26.487 z" id="path232"  style="fill:#39a5e6" />
         <path d="m 330.94,207.143 4.895,-0.54 c 0.119,0.995 0.432,1.733 0.936,2.213 0.504,0.48 1.169,0.72 1.997,0.72 1.044,0 1.932,-0.479 2.663,-1.439 0.731,-0.959 1.199,-2.951 1.403,-5.975 -1.271,1.477 -2.86,2.214 -4.769,2.214 -2.075,0 -3.865,-0.801 -5.371,-2.402 -1.506,-1.601 -2.258,-3.686 -2.258,-6.253 0,-2.675 0.794,-4.832 2.384,-6.469 1.59,-1.638 3.614,-2.456 6.073,-2.456 2.675,0 4.87,1.035 6.586,3.104 1.715,2.069 2.573,5.473 2.573,10.211 0,4.822 -0.894,8.302 -2.682,10.437 -1.787,2.136 -4.114,3.203 -6.981,3.203 -2.063,0 -3.731,-0.549 -5.002,-1.646 -1.272,-1.099 -2.087,-2.739 -2.447,-4.922 z m 11.445,-11.049 c 0,-1.631 -0.375,-2.897 -1.125,-3.797 -0.75,-0.9 -1.616,-1.35 -2.601,-1.35 -0.936,0 -1.712,0.369 -2.33,1.107 -0.618,0.737 -0.927,1.946 -0.927,3.625 0,1.704 0.336,2.954 1.008,3.752 0.672,0.798 1.512,1.197 2.52,1.197 0.972,0 1.79,-0.384 2.456,-1.152 0.666,-0.767 0.999,-1.895 0.999,-3.382 z" id="path234"  style="fill:#39a5e6" />
      </g>
      <g id="g262">
         <path d="m 185.842,236.313 v -16.188 h 4.891 l 2.938,11.041 2.904,-11.041 h 4.902 v 16.188 h -3.036 V 223.57 l -3.214,12.742 h -3.146 l -3.202,-12.742 v 12.742 h -3.037 z" id="path238"  style="fill:#39a5e6" />
         <path d="m 212.42,236.313 v -1.756 c -0.428,0.625 -0.988,1.119 -1.685,1.479 -0.695,0.361 -1.43,0.541 -2.202,0.541 -0.788,0 -1.495,-0.172 -2.12,-0.518 -0.626,-0.346 -1.079,-0.832 -1.358,-1.459 -0.28,-0.625 -0.42,-1.49 -0.42,-2.594 v -7.42 h 3.104 v 5.389 c 0,1.648 0.057,2.658 0.171,3.031 0.114,0.371 0.321,0.666 0.624,0.883 0.302,0.217 0.685,0.326 1.148,0.326 0.529,0 1.004,-0.146 1.424,-0.438 0.42,-0.292 0.707,-0.65 0.861,-1.082 0.154,-0.43 0.232,-1.484 0.232,-3.162 v -4.947 h 3.103 v 11.727 z" id="path240"  style="fill:#39a5e6" />
         <path d="m 218.515,236.313 v -16.188 h 3.103 v 16.188 z" id="path242"  style="fill:#39a5e6" />
         <path d="m 230.176,224.586 v 2.473 h -2.12 v 4.727 c 0,0.957 0.02,1.514 0.061,1.672 0.04,0.158 0.133,0.289 0.276,0.393 0.143,0.104 0.317,0.154 0.524,0.154 0.287,0 0.702,-0.1 1.247,-0.297 l 0.266,2.406 c -0.722,0.309 -1.539,0.463 -2.451,0.463 -0.56,0 -1.064,-0.094 -1.514,-0.281 -0.448,-0.188 -0.778,-0.43 -0.988,-0.729 -0.209,-0.299 -0.354,-0.701 -0.436,-1.209 -0.066,-0.361 -0.1,-1.09 -0.1,-2.186 v -5.113 h -1.424 v -2.473 h 1.424 v -2.33 l 3.114,-1.811 v 4.141 z" id="path244"  style="fill:#39a5e6" />
         <path d="m 232.328,222.996 v -2.871 h 3.103 v 2.871 z m 0,13.317 v -11.727 h 3.103 v 11.727 z" id="path246"  style="fill:#39a5e6" />
         <path d="m 238.611,236.313 v -16.188 h 3.103 v 16.188 z" id="path248"  style="fill:#39a5e6" />
         <path d="m 244.895,222.996 v -2.871 h 3.103 v 2.871 z m 0,13.317 v -11.727 h 3.103 v 11.727 z" id="path250"  style="fill:#39a5e6" />
         <path d="m 261.845,236.313 h -3.104 v -5.984 c 0,-1.268 -0.065,-2.086 -0.198,-2.457 -0.133,-0.372 -0.348,-0.661 -0.646,-0.867 -0.298,-0.206 -0.656,-0.31 -1.076,-0.31 -0.537,0 -1.02,0.147 -1.446,0.442 -0.428,0.294 -0.72,0.684 -0.878,1.17 -0.158,0.486 -0.237,1.385 -0.237,2.693 v 5.313 h -3.103 v -11.727 h 2.882 v 1.723 c 1.022,-1.326 2.311,-1.988 3.864,-1.988 0.685,0 1.311,0.123 1.877,0.37 0.567,0.247 0.996,0.562 1.286,0.944 0.291,0.383 0.493,0.816 0.607,1.303 0.114,0.487 0.172,1.182 0.172,2.088 z" id="path252"  style="fill:#39a5e6" />
         <path d="m 264.704,237.084 3.545,0.432 c 0.059,0.412 0.194,0.695 0.408,0.85 0.294,0.221 0.758,0.332 1.392,0.332 0.81,0 1.417,-0.121 1.821,-0.365 0.272,-0.162 0.479,-0.422 0.619,-0.783 0.095,-0.258 0.144,-0.732 0.144,-1.424 v -1.713 c -0.928,1.268 -2.099,1.9 -3.512,1.9 -1.575,0 -2.823,-0.666 -3.743,-2 -0.722,-1.051 -1.082,-2.361 -1.082,-3.93 0,-1.966 0.473,-3.467 1.419,-4.506 0.945,-1.037 2.121,-1.557 3.527,-1.557 1.45,0 2.646,0.637 3.589,1.91 v -1.645 h 2.904 v 10.523 c 0,1.383 -0.114,2.418 -0.343,3.102 -0.228,0.686 -0.548,1.223 -0.96,1.613 -0.413,0.389 -0.963,0.695 -1.651,0.916 -0.688,0.221 -1.559,0.33 -2.611,0.33 -1.987,0 -3.397,-0.34 -4.229,-1.021 -0.832,-0.68 -1.248,-1.543 -1.248,-2.588 0,-0.103 0.004,-0.228 0.011,-0.376 z m 2.772,-6.879 c 0,1.244 0.241,2.156 0.724,2.734 0.481,0.578 1.076,0.865 1.783,0.865 0.758,0 1.398,-0.295 1.921,-0.889 0.522,-0.592 0.784,-1.469 0.784,-2.633 0,-1.215 -0.25,-2.116 -0.751,-2.705 -0.501,-0.59 -1.134,-0.884 -1.899,-0.884 -0.743,0 -1.356,0.289 -1.838,0.867 -0.483,0.579 -0.724,1.461 -0.724,2.645 z" id="path254"  style="fill:#39a5e6" />
         <path d="m 286.523,236.313 v -1.756 c -0.428,0.625 -0.988,1.119 -1.685,1.479 -0.695,0.361 -1.43,0.541 -2.202,0.541 -0.788,0 -1.495,-0.172 -2.12,-0.518 -0.626,-0.346 -1.079,-0.832 -1.358,-1.459 -0.28,-0.625 -0.42,-1.49 -0.42,-2.594 v -7.42 h 3.104 v 5.389 c 0,1.648 0.057,2.658 0.171,3.031 0.114,0.371 0.321,0.666 0.624,0.883 0.302,0.217 0.685,0.326 1.148,0.326 0.529,0 1.004,-0.146 1.424,-0.438 0.42,-0.292 0.707,-0.65 0.861,-1.082 0.154,-0.43 0.232,-1.484 0.232,-3.162 v -4.947 h 3.103 v 11.727 z" id="path256"  style="fill:#39a5e6" />
         <path d="m 294.938,228.163 -2.816,-0.508 c 0.316,-1.134 0.861,-1.973 1.635,-2.518 0.772,-0.545 1.921,-0.817 3.444,-0.817 1.385,0 2.415,0.164 3.092,0.492 0.678,0.327 1.154,0.743 1.431,1.247 0.275,0.505 0.414,1.431 0.414,2.776 l -0.033,3.623 c 0,1.029 0.05,1.791 0.148,2.279 0.1,0.49 0.285,1.014 0.558,1.574 h -3.069 c -0.081,-0.207 -0.181,-0.512 -0.298,-0.916 -0.052,-0.186 -0.089,-0.307 -0.11,-0.365 -0.53,0.516 -1.098,0.902 -1.701,1.16 -0.604,0.256 -1.247,0.385 -1.932,0.385 -1.208,0 -2.159,-0.326 -2.854,-0.982 -0.695,-0.654 -1.044,-1.482 -1.044,-2.484 0,-0.662 0.158,-1.252 0.476,-1.771 0.316,-0.52 0.76,-0.916 1.33,-1.193 0.57,-0.275 1.394,-0.516 2.468,-0.723 1.45,-0.271 2.455,-0.526 3.015,-0.762 v -0.31 c 0,-0.597 -0.147,-1.021 -0.441,-1.274 -0.295,-0.255 -0.851,-0.382 -1.668,-0.382 -0.552,0 -0.982,0.108 -1.292,0.325 -0.312,0.218 -0.563,0.599 -0.753,1.144 z m 4.151,2.517 c -0.397,0.133 -1.027,0.291 -1.889,0.477 -0.86,0.184 -1.424,0.363 -1.688,0.541 -0.405,0.287 -0.607,0.65 -0.607,1.092 0,0.436 0.161,0.811 0.485,1.127 0.324,0.316 0.736,0.475 1.237,0.475 0.559,0 1.093,-0.184 1.601,-0.553 0.375,-0.279 0.622,-0.621 0.74,-1.025 0.08,-0.266 0.121,-0.77 0.121,-1.514 z" id="path258"  style="fill:#39a5e6" />
         <path d="m 305.195,236.313 v -16.188 h 3.103 v 16.188 z" id="path260"  style="fill:#39a5e6" />
      </g>
   </g>

</svg>