<svg xmlns:svg="http://www.w3.org/2000/svg" 
   xmlns="http://www.w3.org/2000/svg" version="1.1" x="0px" y="0px" width="360px" height="360px" viewBox="0 0 360 360" enable-background="new 0 0 360 360">
   <g transform="matrix(1.088816,0,0,1.088816,-4.8016507,-21.202222)">
      <g >
         <path style="fill:#000000" d="m 264.9661,307.46122 c -1.1,-0.45499 -3.125,-2.03759 -4.5,-3.51688 l -2.5,-2.68963 -0.26723,-81.41973 c -0.26397,-80.42737 -0.2914,-81.41973 -2.25,-81.41973 -1.93361,0 -1.98277,0.75485 -1.98277,30.44424 v 30.44423 l -2.39387,2.78304 c -3.43418,3.99247 -9.79998,3.96701 -13.25787,-0.053 l -2.43948,-2.83606 0.29561,-36.64121 0.29561,-36.64124 2.70701,-5.13192 c 3.36814,-6.38527 9.46494,-11.31656 16.12818,-13.04498 7.55272,-1.95915 51.55246,-1.8426 58.27699,0.15437 6.32625,1.8787 12.47728,7.1299 15.51484,13.24519 2.34463,4.72027 2.37667,5.20626 2.68145,40.67908 0.22769,26.50027 -0.01,36.66964 -0.90617,38.83413 -1.44015,3.47683 -5.14248,5.12926 -9.61315,4.29055 -5.25253,-0.98538 -6.28879,-3.53808 -6.29178,-15.49893 -10e-4,-5.79012 -0.29787,-19.63999 -0.65872,-30.77749 -0.60795,-18.76392 -0.79122,-20.25 -2.49737,-20.25 -1.77319,0 -1.84128,2.98988 -1.84128,80.85212 v 80.85211 l -2.25,3.33543 c -4.05121,6.00557 -13.00244,6.43692 -18.32484,0.88307 l -2.92516,-3.05237 -0.28643,-48.43518 c -0.28014,-47.37173 -0.32954,-48.43518 -2.25,-48.43518 -1.9239,0 -1.96357,0.96073 -1.96357,47.54966 0,52.82451 0.0657,52.27147 -6.5343,55.02912 -3.76304,1.5723 -6.93451,1.72098 -9.9657,0.46719 z"/>
         <path style="fill:#000000" d="m 275.4661,100.29453 c -6.68389,-2.657398 -12,-11.025438 -12,-18.889098 0,-20.17677 26.94679,-27.79628 37.47171,-10.59555 8.39968,13.72748 -1.0879,30.713228 -17.05957,30.541988 -3.25168,-0.0349 -7.03714,-0.51067 -8.41214,-1.05734 z"/>
      </g>
      <g style="fill:#000000">
         <path d="m 156.82653,235.41737 v -5.08 h -12.44 v -0.28 l 3.68,-3.44 c 5.04,-4.64 7.96,-7.68 7.96,-12.44 0,-4.4 -3.44,-7.72 -9.04,-7.72 -5.12,0 -7.76,1.96 -10.2,4.08 l 3.28,3.88 c 2.28,-1.88 4.28,-2.92 6.48,-2.92 2.12,0 3.48,1.12 3.48,3.4 0,2.8 -1.68,4.64 -6,9.08 l -7.16,7.24 v 4.2 z" />
         <path d="m 184.22778,235.41737 h 5.56 l 7.36,-22.36 h 0.16 c -0.08,1.6 -0.28,6.16 -0.28,8.84 v 13.52 h 5.64 v -28.56 h -8.24 l -7.16,21.84 h -0.12 l -6.76,-21.84 h -8.24 v 28.56 h 5.4 v -13.28 c 0,-2.92 -0.28,-7.52 -0.36,-9.12 h 0.16 z" />
      </g>
      <g >
         <path d="m 109.32422,253.37305 v 4 h 120.80664 v -4 z" />
         <path style="fill:#000000" d="m 117.02577,260.21265 -13.11106,-4.82126 13.11106,-4.82127 c -2.0946,2.84647 -2.08253,6.74094 0,9.64253 z" />
         <path style="fill:#000000" d="m 222.42854,250.53169 13.11106,4.82126 -13.11106,4.82127 c 2.0946,-2.84647 2.08253,-6.74094 0,-9.64253 z" />
      </g>
      <g transform="translate(-227.27604)">
         <path style="fill:#000000" d="m 264.9661,307.46122 c -1.1,-0.45499 -3.125,-2.03759 -4.5,-3.51688 l -2.5,-2.68963 -0.26723,-81.41973 c -0.26397,-80.42737 -0.2914,-81.41973 -2.25,-81.41973 -1.93361,0 -1.98277,0.75485 -1.98277,30.44424 v 30.44423 l -2.39387,2.78304 c -3.43418,3.99247 -9.79998,3.96701 -13.25787,-0.053 l -2.43948,-2.83606 0.29561,-36.64121 0.29561,-36.64124 2.70701,-5.13192 c 3.36814,-6.38527 9.46494,-11.31656 16.12818,-13.04498 7.55272,-1.95915 51.55246,-1.8426 58.27699,0.15437 6.32625,1.8787 12.47728,7.1299 15.51484,13.24519 2.34463,4.72027 2.37667,5.20626 2.68145,40.67908 0.22769,26.50027 -0.01,36.66964 -0.90617,38.83413 -1.44015,3.47683 -5.14248,5.12926 -9.61315,4.29055 -5.25253,-0.98538 -6.28879,-3.53808 -6.29178,-15.49893 -10e-4,-5.79012 -0.29787,-19.63999 -0.65872,-30.77749 -0.60795,-18.76392 -0.79122,-20.25 -2.49737,-20.25 -1.77319,0 -1.84128,2.98988 -1.84128,80.85212 v 80.85211 l -2.25,3.33543 c -4.05121,6.00557 -13.00244,6.43692 -18.32484,0.88307 l -2.92516,-3.05237 -0.28643,-48.43518 c -0.28014,-47.37173 -0.32954,-48.43518 -2.25,-48.43518 -1.9239,0 -1.96357,0.96073 -1.96357,47.54966 0,52.82451 0.0657,52.27147 -6.5343,55.02912 -3.76304,1.5723 -6.93451,1.72098 -9.9657,0.46719 z" />
         <path style="fill:#000000" d="m 275.4661,100.29453 c -6.68389,-2.657398 -12,-11.025438 -12,-18.889098 0,-20.17677 26.94679,-27.79628 37.47171,-10.59555 8.39968,13.72748 -1.0879,30.713228 -17.05957,30.541988 -3.25168,-0.0349 -7.03714,-0.51067 -8.41214,-1.05734 z" />
      </g>
   </g>
</svg>