<svg xmlns:svg="http://www.w3.org/2000/svg" 
   xmlns="http://www.w3.org/2000/svg" x="0px" y="0px" width="360px" height="360px" viewBox="0 0 360 360" enable-background="new 0 0 360 360">
   <switch transform="matrix(1.4528033,0,0,1.4528033,-81.887948,-81.759299)">
      <g >
         <g >
            <path stroke-miterlimit="10" d="M 60.25,292.5 H 302 c 0,0 0,-42.25 -6,-52.75 -9.707,-16.988 -65.047,-29.32 -76,-32 -8.256,-2.02 -11.75,-16.5 -11.75,-16.5 H 152 c 0,0 -5.5,16 -10.75,17.5 -5.25,1.5 -54.711,15.311 -62.5,20.25 -10.25,6.5 -17.25,20.75 -18.5,30.5 -1.25,9.75 0,33 0,33 z"  style="fill:#231f20;stroke:#231f20;stroke-width:0.25;stroke-miterlimit:10" />
            <circle stroke-miterlimit="10" cx="182.25" cy="133" r="64" style="fill:#040202;stroke:#231f20;stroke-miterlimit:10" />
         </g>
         <path stroke-miterlimit="10" d="m 102.5,292.25 36.75,-84.893 c 0,0 -5.75,-6.568 -4.5,-12.885 1.25,-6.317 33.25,-60.637 33.25,-60.637 0,0 8,-10.611 5.25,3.032 -2.75,13.644 -10.25,25.518 -10.25,25.518 0,0 19.5,-40.677 25,-36.382 5.5,4.295 -14.5,38.403 -13.75,41.435 0,0 24.5,-50.025 28.5,-39.667 4,10.358 -17,49.52 -17,49.52 0,0 25.5,-53.815 27.25,-35.624 1.75,18.191 -22,46.74 -22,46.74 l 0.964,1.596 c 0,0 40.03,-43.701 19.786,-8.922 -21.212,36.44 -25.4,41.82 -25.4,41.82 0,0 -2.6,3.404 -12.1,1.636 -3.494,-0.65 -4.5,-1.915 -4.5,-1.915 L 140.5,292.25 Z"  style="fill:#d5d5d5;stroke:#231f20;stroke-width:0.25;stroke-miterlimit:10" />
         <g >
            <line stroke-miterlimit="10" x1="146.272" y1="201.985" x2="200.189" y2="157.186" style="fill:none;stroke:#be1e2d;stroke-width:12;stroke-miterlimit:10" />
            <line stroke-miterlimit="10" x1="187.55099" y1="209.431" x2="153.157" y2="148.34801" style="fill:none;stroke:#be1e2d;stroke-width:12;stroke-miterlimit:10" />
         </g>
      </g>

   </switch>

</svg>