<?xml version="1.0" encoding="UTF-8" standalone="no"?>
<!-- Created with Inkscape (http://www.inkscape.org/) -->

<svg
  xmlns:dc="http://purl.org/dc/elements/1.1/"
  xmlns:cc="http://creativecommons.org/ns#"
  xmlns:rdf="http://www.w3.org/1999/02/22-rdf-syntax-ns#"
  xmlns:svg="http://www.w3.org/2000/svg"
  xmlns="http://www.w3.org/2000/svg"
  xmlns:sodipodi="http://sodipodi.sourceforge.net/DTD/sodipodi-0.dtd"
  xmlns:inkscape="http://www.inkscape.org/namespaces/inkscape"
  version="1.1"
  id="svg1124"
  xml:space="preserve"
  width="340"
  height="310"
  viewBox="0 0 340.00001 310"
  sodipodi:docname="face.svg"
  inkscape:version="0.92.4 (5da689c313, 2019-01-14)"
>
  <metadata id="metadata1130">
    <rdf:RDF>
      <cc:Work rdf:about="">
        <dc:format>image/svg+xml</dc:format>
        <dc:type rdf:resource="http://purl.org/dc/dcmitype/StillImage" />
        <dc:title></dc:title>
      </cc:Work>
    </rdf:RDF>
  </metadata>
  <defs id="defs1128" />
  <sodipodi:namedview
    pagecolor="#ffffff"
    bordercolor="#666666"
    borderopacity="1"
    objecttolerance="10"
    gridtolerance="10"
    guidetolerance="10"
    inkscape:pageopacity="0"
    inkscape:pageshadow="2"
    inkscape:window-width="1850"
    inkscape:window-height="1016"
    id="namedview1126"
    showgrid="false"
    fit-margin-top="0"
    fit-margin-left="0"
    fit-margin-right="0"
    fit-margin-bottom="0"
    inkscape:zoom="0.90769231"
    inkscape:cx="-107.54076"
    inkscape:cy="170.09244"
    inkscape:window-x="70"
    inkscape:window-y="27"
    inkscape:window-maximized="1"
    inkscape:current-layer="g1132"
  />
  <g
    id="g1132"
    inkscape:groupmode="layer"
    inkscape:label="ink_ext_XXXXXX"
    transform="matrix(1.3333333,0,0,-1.3333333,-1024.0783,965.31574)"
  >
    <path
      inkscape:connector-curvature="0"
      id="path1156"
      style="fill:#d3e5fd;fill-opacity:1;fill-rule:nonzero;stroke:none;stroke-width:0.0771875"
      d="M 1023.0587,491.48682 H 768.05873 V 723.98683 H 1023.0587 V 491.48682"
    />
    <path
      inkscape:connector-curvature="0"
      id="path1162"
      style="fill:#ffb380;fill-opacity:1;fill-rule:nonzero;stroke:none;stroke-width:0.13543573"
      d="m 961.89556,618.84613 c 0,0 9.87056,58.84547 -10.6019,73.46711 0,0 -14.80448,16.08434 -48.15011,13.15893 -33.35241,2.92541 -48.15959,-13.15893 -48.15959,-13.15893 -20.46841,-14.62164 -10.59379,-73.46711 -10.59379,-73.46711 -12.78919,6.57811 -12.06055,-8.76269 -12.06055,-8.76269 -1.09703,-30.7087 17.90867,-35.82411 17.90867,-35.82411 8.03811,-47.86163 52.90526,-55.48531 52.90526,-55.48531 0,0 44.85902,7.62368 52.90119,55.48531 0,0 19.00434,5.11541 17.90867,35.82411 0,0 0.73,15.3408 -12.05785,8.76269"
    />
    <path
      inkscape:connector-curvature="0"
      id="path1214"
      style="fill:#2d1407;fill-opacity:1;fill-rule:nonzero;stroke:none;stroke-width:0.13543573"
      d="m 841.69094,608.51374 c 0,0 -22.32252,52.19015 14.96971,87.05131 0,0 -1.82838,5.60704 -12.88806,5.58266 -11.05969,-0.0244 19.23458,0.86679 19.23458,0.86679 l -0.49028,10.87955 12.66053,-7.48959 c 0,0 27.24561,15.92724 66.39466,-0.7923 l 3.09741,4.87839 c 0,0 41.68441,-24.21591 17.73396,-95.21538 0,0 -1.04692,40.50612 -15.36248,53.13956 0,0 -39.4145,-8.89 -63.1442,2.36471 0,0 -31.80708,1.48438 -34.5036,-22.81686 0,0 1.62794,-35.17943 -7.70223,-38.44884"
    />
    <path
      style="display:inline;fill:#ffb380;fill-opacity:1;stroke:#b26f08;stroke-width:0.77164334;stroke-miterlimit:4;stroke-dasharray:none;stroke-opacity:1"
      d="m 866.87359,590.12906 c 1.63065,0 3.42386,-1.09788 4.16417,-2.54903 0.65324,-1.2804 0.68707,-3.20516 0.0764,-4.3395 -0.24759,-0.45979 -2.1489,-2.94656 -4.2255,-5.52608 -4.44838,-5.52583 -18.86377,-23.54339 -20.53139,-25.66217 -5.05206,-6.41862 -4.88664,-6.1759 -4.88664,-7.19949 0,-0.75768 0.15637,-1.10758 0.67775,-1.51767 1.49722,-1.17774 2.20091,-0.73445 5.53157,3.48545 1.46544,1.85665 5.39169,6.77593 8.72521,10.93162 3.33353,4.15569 9.26592,11.57592 13.18325,16.48936 5.51177,6.91332 7.35263,9.05097 8.13998,9.45263 2.96306,1.51164 6.57426,-0.50835 6.89605,-3.85721 0.16719,-1.73984 -0.19381,-2.48228 -2.76511,-5.69138 -1.20614,-1.50535 -3.65388,-4.57266 -5.43967,-6.81618 -1.78579,-2.24351 -4.54531,-5.69973 -6.13192,-7.68027 -1.58661,-1.98053 -3.88683,-4.85439 -5.11217,-6.38664 -1.22527,-1.53228 -3.2709,-4.07872 -4.54593,-5.65873 -7.35426,-9.11307 -8.35645,-10.47155 -8.35645,-11.32999 0,-1.44276 1.56523,-2.46857 2.87151,-1.88188 0.56747,0.25485 11.7345,13.85208 15.11792,18.40791 0.48646,0.65501 1.70179,2.18841 2.70071,3.40759 0.99899,1.21918 3.99725,4.93647 6.66297,8.261 3.27682,4.08651 5.16308,6.2225 5.82252,6.59313 1.87606,1.05441 4.68173,0.45034 5.98522,-1.28858 0.81403,-1.08591 1.03391,-1.8055 1.0043,-3.283 -0.0293,-1.4771 0.13056,-1.2517 -8.73229,-12.29807 -3.9193,-4.88501 -7.35576,-9.18561 -7.6365,-9.55712 -0.46276,-0.61234 -5.79366,-7.29385 -18.38235,-23.04029 -4.30086,-5.37973 -4.51379,-5.69929 -4.51379,-6.77298 0,-0.94774 0.13349,-1.24613 0.83996,-1.87737 1.28089,-1.14445 2.12535,-1.01938 4.27221,0.63299 1.57067,1.20894 9.69587,7.66079 12.50707,9.9314 4.0707,3.28795 7.00381,4.96409 10.30514,5.8883 3.14727,0.88108 6.16221,0.60931 7.50695,-0.67619 0.5934,-0.56732 0.70729,-0.8905 0.70729,-2.00748 0,-1.2618 -0.0647,-1.39022 -1.23378,-2.45962 -0.67856,-0.62059 -3.08035,-2.58454 -5.33722,-4.3646 -12.27977,-9.93581 -23.56055,-18.78913 -34.3512,-28.01427 0,0 -38.85281,-10e-4 -71.89418,-0.002 3.52039,4.66486 7.76699,9.91749 11.68841,14.78432 2.1687,2.69123 4.22938,5.45157 4.57962,6.13446 0.49034,0.95597 0.71934,2.02127 0.99572,4.62986 0.56161,5.30125 1.91159,9.23334 4.4445,12.94613 0.56379,0.82641 5.09855,6.59474 14.24125,17.52876 9.14264,10.93403 11.92075,14.40242 14.75012,17.9156 4.86268,6.03794 7.50804,9.35579 10.15994,12.74266 2.65979,3.39687 6.16704,7.63454 6.85235,8.27959 0.40449,0.38066 1.2559,0.82893 1.89246,0.99621 3.78234,0.99385 7.24105,-3.26265 5.45526,-6.71371 -0.36549,-0.70623 -5.74934,-7.54642 -11.93688,-15.1656 -5.0366,-6.20193 -8.98062,-11.30669 -9.11302,-11.79469 -0.39429,-1.45318 1.07251,-2.9023 2.54148,-2.51086 0.82737,0.22047 0.89633,0.2885 3.04537,2.98811 1.06992,1.34394 3.55701,4.44846 5.52667,6.89858 1.96959,2.45011 3.87077,4.8424 4.22441,5.3166 0.56863,0.76238 2.8952,3.67106 14.88375,18.60484 3.25115,4.04988 4.07329,4.67558 6.14655,4.67558 z"
      id="path1083"
      inkscape:connector-curvature="0"
      sodipodi:nodetypes="cccscsssssccssccsscccsscsccsscscccsccccccccscscscsccsccscc"
    />
    <path
      style="opacity:1;vector-effect:none;fill:#ff0000;fill-opacity:1;stroke:none;stroke-width:1.98913109;stroke-linecap:butt;stroke-linejoin:miter;stroke-miterlimit:4;stroke-dasharray:none;stroke-dashoffset:0;stroke-opacity:1"
      d="m 879.81175,615.84086 a 37.801918,37.801918 0 0 1 -37.80126,-37.80256 37.801918,37.801918 0 0 1 8.43308,-23.75043 l -0.0181,-0.0181 c 0.0922,-0.1138 0.19146,-0.22142 0.2849,-0.33412 a 37.801918,37.801918 0 0 1 0.47009,-0.54908 c 0.67599,-0.78442 1.37746,-1.54522 2.11474,-2.27144 a 37.801918,37.801918 0 0 1 0.50246,-0.47657 c 0.72461,-0.68816 1.46808,-1.3569 2.24555,-1.98653 l 0.008,0.008 a 37.801918,37.801918 0 0 1 23.7608,-8.42273 37.801918,37.801918 0 0 1 37.80255,37.80126 37.801918,37.801918 0 0 1 -8.43308,23.75173 l 0.0181,0.0181 c -0.0914,0.11286 -0.18965,0.21975 -0.28231,0.33153 a 37.801918,37.801918 0 0 1 -0.47268,0.55297 c -0.67561,0.78393 -1.37793,1.54306 -2.11474,2.26884 a 37.801918,37.801918 0 0 1 -0.49987,0.47527 c -0.72541,0.68906 -1.46969,1.3587 -2.24814,1.98913 l -0.008,-0.008 a 37.801918,37.801918 0 0 1 -23.76208,8.42273 z m 0,-7.85293 a 29.949344,29.949344 0 0 0 18.15471,-6.17718 l -41.93752,-41.93751 a 29.949344,29.949344 0 0 0 -6.16683,18.16506 29.949344,29.949344 0 0 0 29.94964,29.94963 z m 23.78281,-11.78457 a 29.949344,29.949344 0 0 0 6.16683,-18.16506 29.949344,29.949344 0 0 0 -29.94964,-29.94834 29.949344,29.949344 0 0 0 -18.15471,6.1759 z"
      id="path1875"
      inkscape:connector-curvature="0"
    />
  </g>
</svg>
