<svg
  xmlns="http://www.w3.org/2000/svg"
  x="0px"
  y="0px"
  width="360px"
  height="360px"
  viewBox="0 0 360 360"
  enable-background="new 0 0 360 360"
>
  <switch>
    <g>
      <defs>
        <rect
          id="SVGID_7_"
          x="51"
          y="53.079"
          width="258.501"
          height="253.921"
        />
      </defs>
      <clipPath id="SVGID_8_">
        <use href="#SVGID_7_" overflow="visible" />
      </clipPath>
      <path
        clip-path="url(#SVGID_8_)"
        fill="#C36B15"
        d="M63.865,135.698c-7.105,0-12.865,5.76-12.865,12.864
					c0,7.105,5.76,12.865,12.865,12.865c7.105,0,12.865-5.76,12.865-12.865C76.73,141.458,70.97,135.698,63.865,135.698"
      />
      <path
        clip-path="url(#SVGID_8_)"
        fill="#C36B15"
        d="M132.265,129.363c-5.302,0-9.6,4.298-9.6,9.6s4.298,9.6,9.6,9.6
					c5.302,0,9.6-4.298,9.6-9.6S137.567,129.363,132.265,129.363"
      />
      <path
        clip-path="url(#SVGID_8_)"
        fill="#C36B15"
        d="M218.991,138.673c-5.302,0-9.601,4.298-9.601,9.6
					c0,5.303,4.299,9.601,9.601,9.601s9.601-4.298,9.601-9.601C228.592,142.971,224.293,138.673,218.991,138.673"
      />
      <path
        clip-path="url(#SVGID_8_)"
        fill="#C36B15"
        d="M228.592,292.004c-4.142,0-7.498,3.357-7.498,7.498
					c0,4.142,3.356,7.498,7.498,7.498c4.141,0,7.497-3.356,7.497-7.498C236.089,295.361,232.732,292.004,228.592,292.004"
      />
      <path
        clip-path="url(#SVGID_8_)"
        fill="#C36B15"
        d="M210.201,208.272c-5.303,0-9.6,4.298-9.6,9.601c0,5.302,4.297,9.6,9.6,9.6
					c5.302,0,9.6-4.298,9.6-9.6C219.801,212.57,215.503,208.272,210.201,208.272"
      />
      <path
        clip-path="url(#SVGID_8_)"
        fill="#3983B6"
        d="M293.054,174.937c0,33.021-26.768,59.788-59.787,59.788
					s-59.788-26.768-59.788-59.788c0-33.019,26.768-59.787,59.788-59.787S293.054,141.918,293.054,174.937 M234.201,100.203
					c-40.76,0-73.8,33.042-73.8,73.8s33.041,73.8,73.8,73.8c40.759,0,73.8-33.041,73.8-73.8S274.96,100.203,234.201,100.203"
      />
      <path
        clip-path="url(#SVGID_8_)"
        fill="none"
        stroke="#3983B6"
        stroke-width="3"
        d="M293.054,174.937
					c0,33.021-26.768,59.788-59.787,59.788s-59.788-26.768-59.788-59.788c0-33.019,26.768-59.787,59.788-59.787
					S293.054,141.918,293.054,174.937z M234.201,100.203c-40.76,0-73.8,33.042-73.8,73.8s33.041,73.8,73.8,73.8
					c40.759,0,73.8-33.041,73.8-73.8S274.96,100.203,234.201,100.203z"
      />
      <path
        clip-path="url(#SVGID_8_)"
        fill="#E14511"
        d="M255.426,227.676c0,23.404-18.974,42.377-42.377,42.377
					c-23.405,0-42.378-18.973-42.378-42.377s18.973-42.378,42.378-42.378C236.452,185.298,255.426,204.271,255.426,227.676
					 M213.711,174.704c-28.891,0-52.311,23.42-52.311,52.311c0,28.889,23.42,52.309,52.311,52.309c28.89,0,52.31-23.42,52.31-52.309
					C266.021,198.124,242.601,174.704,213.711,174.704"
      />
      <path
        clip-path="url(#SVGID_8_)"
        fill="none"
        stroke="#E14511"
        stroke-width="5"
        d="M255.426,227.676
					c0,23.404-18.974,42.377-42.377,42.377c-23.405,0-42.378-18.973-42.378-42.377s18.973-42.378,42.378-42.378
					C236.452,185.298,255.426,204.271,255.426,227.676z M213.711,174.704c-28.891,0-52.311,23.42-52.311,52.311
					c0,28.889,23.42,52.309,52.311,52.309c28.89,0,52.31-23.42,52.31-52.309C266.021,198.124,242.601,174.704,213.711,174.704z"
      />
      <path
        clip-path="url(#SVGID_8_)"
        fill="#F9B529"
        d="M161.89,110.051c0,23.404-18.973,42.377-42.377,42.377
					c-23.405,0-42.378-18.973-42.378-42.377c0-23.405,18.973-42.378,42.378-42.378C142.917,67.673,161.89,86.646,161.89,110.051
					 M120.175,57.079c-28.89,0-52.31,23.42-52.31,52.31c0,28.889,23.42,52.309,52.31,52.309c28.89,0,52.31-23.42,52.31-52.309
					C172.485,80.499,149.064,57.079,120.175,57.079"
      />
      <path
        clip-path="url(#SVGID_8_)"
        fill="none"
        stroke="#F9B529"
        stroke-width="8"
        d="M161.89,110.051
					c0,23.404-18.973,42.377-42.377,42.377c-23.405,0-42.378-18.973-42.378-42.377c0-23.405,18.973-42.378,42.378-42.378
					C142.917,67.673,161.89,86.646,161.89,110.051z M120.175,57.079c-28.89,0-52.31,23.42-52.31,52.31
					c0,28.889,23.42,52.309,52.31,52.309c28.89,0,52.31-23.42,52.31-52.309C172.485,80.499,149.064,57.079,120.175,57.079z"
      />
    </g>
  </switch>
</svg>
