<?xml version="1.0" encoding="UTF-8" standalone="no"?>
<!-- Generator: Adobe Illustrator 16.0.3, SVG Export Plug-In . SVG Version: 6.00 Build 0)  -->

<svg xmlns:svg="http://www.w3.org/2000/svg" 
   xmlns="http://www.w3.org/2000/svg" x="0px" y="0px" width="360px" height="360px" viewBox="0 0 360 360" enable-background="new 0 0 360 360">
   <switch transform="matrix(1.3294222,0,0,1.3294222,-61.080178,-58.363727)">
      <g >
         <circle stroke-miterlimit="10" cx="87.396004" cy="179.57899" r="30.405001" style="opacity:0.8;fill:#d8d8d7;stroke:#231f20;stroke-miterlimit:10" />
         <circle stroke-miterlimit="10" cx="131.702" cy="189.884" r="30.405001" style="opacity:0.7;fill:#d8d8d7;stroke:#231f20;stroke-miterlimit:10" />
         <circle stroke-miterlimit="10" cx="169.951" cy="134.40601" r="15.353" style="opacity:0.5;fill:#d8d8d7;stroke:#231f20;stroke-miterlimit:10" />
         <circle stroke-miterlimit="10" cx="155.89301" cy="151.82401" r="15.353" style="fill:#d8d8d7;stroke:#231f20;stroke-miterlimit:10" />
         <circle stroke-miterlimit="10" cx="105.898" cy="131.00301" r="17.205999" style="fill:#d8d8d7;stroke:#231f20;stroke-miterlimit:10" />
         <circle stroke-miterlimit="10" cx="115.124" cy="79.205002" r="17.580999" style="opacity:0.5;fill:#d8d8d7;stroke:#231f20;stroke-miterlimit:10" />
         <circle stroke-miterlimit="10" cx="96.223999" cy="107.737" r="12.856" style="opacity:0.6;fill:#d8d8d7;stroke:#231f20;stroke-miterlimit:10" />
         <circle stroke-miterlimit="10" cx="181.88699" cy="95.746002" r="9.3030005" style="fill:#d8d8d7;stroke:#231f20;stroke-miterlimit:10" />
         <circle stroke-miterlimit="10" cx="146.32401" cy="113.127" r="21.948999" style="opacity:0.6;fill:#d8d8d7;stroke:#231f20;stroke-miterlimit:10" />

         <line stroke-miterlimit="10" x1="175.625" y1="153.948" x2="149.70799" y2="158.866" style="fill:none;stroke:#30302f;stroke-width:3;stroke-miterlimit:10" />
         <path stroke-miterlimit="10" d="m 133.402,145.666 c 0,0 44.893,54.722 87.894,45.013 0,0 21.808,-6.022 36.79,-26.797 l 55.603,0.813 -14.396,-54.348 -68.916,12.523 c 0,0 -37.045,-28.12 -78.678,-20.281 l 10.137,12.167 c 0,0 23.639,4.993 25.104,8.609 1.465,3.617 -35.071,20.46 -53.538,22.301 z" style="fill:#bbbdbf;stroke:#231f20;stroke-miterlimit:10" />
         <line stroke-miterlimit="10" x1="177.55499" y1="156.01801" x2="149.88499" y2="157.22099" style="fill:none;stroke:#6d6e70;stroke-miterlimit:10" />
         <path stroke-miterlimit="10" d="M 188.031,181.139 C 173.767,159.191 172.74,134.598 185.734,126.154" style="fill:none;stroke:#808184;stroke-width:2;stroke-miterlimit:10" />
         <path stroke-miterlimit="10" d="m 101.651,179.958 c 0,0 42.272,56.428 64.201,65.614 16.605,6.956 30.66,3.299 30.66,3.299 l 35.56,43.539 34.8,-45.466 -55.556,-43.002 c 0,0 5.913,-37.811 -31.516,-74.283 l -2.665,14.482 c 0,0 8.542,20.119 7.784,23.729 -0.758,3.611 -45.788,-17.111 -64.315,-40.52 l -6.198,12.995 38.479,37 -47.706,-43.901 -6.328,10.765 44.798,46.912 -37.38,-36.93 -3.412,11.125 35.007,38.393 -31.699,-31.391 z" style="fill:#444445;stroke:#040202;stroke-miterlimit:10" />
      </g>
   </switch>

</svg>