<?xml version="1.0" encoding="UTF-8" standalone="no"?>
<!-- Created with Inkscape (http://www.inkscape.org/) -->

<svg
   xmlns:dc="http://purl.org/dc/elements/1.1/"
   xmlns:cc="http://creativecommons.org/ns#"
   xmlns:rdf="http://www.w3.org/1999/02/22-rdf-syntax-ns#"
   xmlns:svg="http://www.w3.org/2000/svg"
   xmlns="http://www.w3.org/2000/svg"
   xmlns:sodipodi="http://sodipodi.sourceforge.net/DTD/sodipodi-0.dtd"
   xmlns:inkscape="http://www.inkscape.org/namespaces/inkscape"
   width="768"
   height="508"
   viewBox="0 0 203.2 134.40961"
   version="1.1"
   id="svg8"
   sodipodi:docname="wash.svg"
   inkscape:version="0.92.4 (5da689c313, 2019-01-14)">
  <metadata
     id="metadata16">
    <rdf:RDF>
      <cc:Work
         rdf:about="">
        <dc:format>image/svg+xml</dc:format>
        <dc:type
           rdf:resource="http://purl.org/dc/dcmitype/StillImage" />
        <dc:title></dc:title>
      </cc:Work>
    </rdf:RDF>
  </metadata>
  <defs
     id="defs14" />
  <sodipodi:namedview
     pagecolor="#ffffff"
     bordercolor="#666666"
     borderopacity="1"
     objecttolerance="10"
     gridtolerance="10"
     guidetolerance="10"
     inkscape:pageopacity="0"
     inkscape:pageshadow="2"
     inkscape:window-width="1850"
     inkscape:window-height="1016"
     id="namedview12"
     showgrid="false"
     inkscape:zoom="1.8125"
     inkscape:cx="507.02371"
     inkscape:cy="92.176814"
     inkscape:window-x="70"
     inkscape:window-y="27"
     inkscape:window-maximized="1"
     inkscape:current-layer="layer3" />
  <g
     inkscape:groupmode="layer"
     id="layer1"
     inkscape:label="background"
     style="display:inline">
    <rect
       style="opacity:1;vector-effect:none;fill:#d3e5fd;fill-opacity:1;stroke:none;stroke-width:4.63025236;stroke-linecap:butt;stroke-linejoin:miter;stroke-miterlimit:4;stroke-dasharray:none;stroke-dashoffset:0;stroke-opacity:1"
       id="rect1095"
       width="203.20193"
       height="134.40961"
       x="-0.00096740725"
       y="1.5332031e-06" />
  </g>
  <g
     inkscape:groupmode="layer"
     id="layer2"
     inkscape:label="hand1"
     style="display:inline">
    <path
       style="stroke-width:2.99999996;fill:#ffb380;fill-opacity:1;stroke:#b26f08;stroke-opacity:1;stroke-miterlimit:4;stroke-dasharray:none"
       d="m 391.68945,5.4414062 c -1.45119,0.049289 -2.95421,0.3691035 -5.04297,0.9765626 -7.91357,2.3017104 0.49835,-7.904313 -96.08398,116.5839812 -31.78949,40.97461 -58.89639,75.51057 -60.23633,76.74805 -5.31533,4.90885 -14.29034,0.82857 -12.94726,-5.88672 0.29366,-1.46822 8.41264,-19.60075 18.04297,-40.29297 21.71525,-46.65885 24.1201,-54.110339 23.43359,-72.656248 -0.33033,-8.918088 -0.79269,-11.266061 -3.17188,-16.128906 -3.98623,-8.147601 -7.47477,-10.783203 -14.27343,-10.783203 -9.12528,0 -9.49529,0.568764 -32.2168,49.499997 -10.98196,23.64979 -30.82351,66.32627 -44.0918,94.83789 -24.97953,53.67721 -28.47491,62.68977 -32.63867,84.16016 -2.36516,12.19592 -2.42932,37.17151 -0.12305,47.31445 2.15465,9.47613 2.07991,16.68447 -0.22461,21.6836 -1.01419,2.19997 -5.87221,9.17506 -10.79492,15.5 -59.232374,76.10416 -107.082029,139.25 -107.082029,139.25 l -1.26471,1.73633 202.155869,0.006 c 0,0 1.18319,-1.37473 1.70845,-2.16017 0,0 12.5211,-15.25546 37.66406,-47.9707 13.42849,-17.47278 19.84518,-24.48809 24.64649,-26.9375 5.76876,-2.94305 24.0911,-9.1614 26.85156,-9.11329 1.37498,0.0227 107.32338,-37.54503 107.32338,-37.54503 L 430.28469,198.17412 491,111.95117 c 0,0 2.2339,-3.93692 4.96484,-7.5 7.49417,-9.77765 8.56338,-16.569973 4.01563,-25.484373 -5.14861,-10.092112 -21.0143,-15.117568 -29.69531,-8.408203 -17.34755,21.723253 -29.03023,35.793856 -29.03023,35.793856 0,0 -4.36339,4.46879 -5.29492,4.11133 -0.80526,-0.30916 -2.89031,-0.56774 -4.63281,-0.57617 -7.16051,-0.034 -4.56654,-4.45314 14.78022,-29.311438 10.11558,-12.99737 19.16719,-25.306845 20.11524,-27.353516 2.08042,-4.49117 2.27402,-12.095741 0.41992,-16.533203 -3.14091,-7.517258 -11.84418,-13.105515 -20.27539,-13.019531 -10.00658,0.102046 -10.14904,0.249285 -51.08789,52.832031 -20.55385,26.399767 -41.54575,52.959197 -42.23759,53.656517 -1.61566,1.62843 -15.99921,2.60668 -15.01953,1.02149 C 338.69149,130.09701 369.54319,90.585328 388.75,66.044922 407.87204,41.6127 411.96549,35.846623 413.05859,31.787109 416.0021,20.855723 408.38982,9.1009892 396.41602,6.0859375 394.53842,5.6131609 393.14065,5.392117 391.68945,5.4414062 Z"
       id="path1089"
       transform="matrix(0.26458585,0,0,0.26458585,-9.6503937e-4,0)"
       inkscape:connector-curvature="0"
       sodipodi:nodetypes="scscccccsccsscccccccccccccccccccccsscccccs" />
  </g>
  <g
     inkscape:groupmode="layer"
     id="layer4"
     inkscape:label="suds"
     style="display:inline">
    <path
       style="fill:#ffffff;fill-opacity:1;stroke:none;stroke-width:17.5;stroke-miterlimit:4;stroke-dasharray:none;stroke-opacity:1"
       d="m 463.3418,73.134766 c -2.42923,0.02992 -4.81535,0.470345 -6.70118,1.365234 -7.03404,3.337858 -10.20625,11.374234 -7.55078,19.132812 0.72786,2.126607 1.34372,4.236372 1.36719,4.689454 0.0227,0.453078 1.84297,1.914504 4.04297,3.246094 5.19159,3.14234 11.59209,3.20398 16.89453,0.16406 9.14191,-5.241133 10.31,-18.082734 2.32227,-25.542967 -2.15887,-2.016288 -6.3263,-3.104554 -10.375,-3.054687 z m -74.07813,24.064453 c -1.65408,-0.0647 -3.03118,0.91262 -4.16992,2.941401 -1.3218,2.35493 -1.29759,2.89845 0.23828,5.24219 2.13953,3.26532 5.96942,3.45255 8.11133,0.39453 2.21444,-3.16153 1.93075,-5.48668 -0.89453,-7.337887 -1.20134,-0.787144 -2.29271,-1.201415 -3.28516,-1.240234 z m 33.29688,9.388671 c -1.1765,-0.007 -2.379,-0.003 -3.60743,0.0117 -15.63023,0.18399 -32.70299,7.65817 -46.16992,20.21289 l -4.71679,4.39648 -4.28321,-1.40039 c -3.98986,-1.30453 -18.00665,-1.07242 -26.7832,0.44336 -8.21941,1.41958 -19.80877,11.4692 -24.50195,21.2461 -2.13977,4.45752 -3.02462,8.05664 -3.43946,14 l -0.55859,8 -5.14062,0.62695 c -5.7471,0.70147 -12.88296,4.99227 -16.3125,9.80859 -7.75915,10.89675 -6.45552,25.74953 3.0996,35.30469 l 4.81055,4.8125 -0.72851,9.22266 c -1.76242,22.31526 2.7911,38.74991 15.30273,55.24023 5.16082,6.80193 14.13597,14.8266 21.61914,19.32813 3.92077,2.35855 4.84961,3.86529 4.84961,7.87109 0,1.40369 0.53161,4.32655 1.18164,6.49609 1.37313,4.5831 0.40394,5.74793 -4.81445,5.77344 -4.92014,0.0227 -18.49847,7.34884 -23.32227,12.58203 -6.71559,7.28558 -10.36848,16.20522 -10.86133,26.51367 -0.5164,10.80081 1.29171,17.46677 7.07032,26.0625 4.38353,6.52057 13.96163,14.29466 17.98437,14.59766 2.82494,0.21279 3.40044,1.42606 4.14844,8.72656 1.23798,12.08368 8.00999,27.65837 16.38281,37.67969 11.78649,14.10711 28.07787,23.41782 47.06055,26.89453 7.00767,1.28348 22.72055,0.23716 31.02148,-2.0664 8.66861,-2.40573 15.16608,-5.52483 15.10156,-7.24805 59.49271,-23.97754 119.60626,-79.47676 161.56446,-208.37305 3.33812,-1.28095 4.48265,-22.58626 1.88867,-35.14453 -3.09847,-15.00057 -9.20518,-26.09417 -21.09766,-38.33008 l -7.4082,-7.62109 1.18945,-6.44531 c 2.31404,-12.55862 -2.16075,-26.09977 -11.71875,-35.46289 -12.34956,-12.09779 -30.21671,-15.14473 -46.11718,-7.86524 -3.08241,1.41116 -5.92139,2.21719 -6.3086,1.79102 -0.38721,-0.42617 -1.22278,-2.39644 -1.85547,-4.37891 -1.86695,-5.84991 -7.79348,-11.88733 -14.7832,-15.05664 -7.97956,-3.61809 -13.90462,-3.70457 -21.19141,-0.3125 l -5.38476,2.50586 -4.11524,-2.37891 c -9.49065,-5.48646 -21.40716,-7.96648 -39.05468,-8.06445 z m 93.7832,1.47852 c -2.01554,-0.0304 -4.11522,1.02784 -5.25391,3.0664 -1.31802,2.35963 -1.29247,2.90787 0.24219,5.25 2.08216,3.1778 5.83684,3.44442 8.66602,0.61524 2.41728,-2.41728 2.50168,-3.83758 0.40429,-6.83203 -0.97503,-1.39207 -2.49095,-2.07595 -4.05859,-2.09961 z m 70.5332,46.95898 c -1.46884,0.0789 -2.90957,0.59613 -4.05078,1.62891 -3.29481,2.98175 -1.95332,10.17607 2.17188,11.65039 2.23783,0.79978 2.64442,0.77857 5.40625,-0.27149 2.50013,-0.95054 4.33047,-4.91272 3.71093,-8.03515 -0.63577,-3.20449 -4.00683,-5.14614 -7.23828,-4.97266 z m -290.45117,1.01563 C 293.26836,155.94078 290,158.30336 290,161.82422 c 0,5.68368 7.29632,8.44417 10.44336,3.95117 2.01043,-2.87029 1.97661,-5.65523 -0.0977,-7.94727 -1.07307,-1.18573 -2.48473,-1.74154 -3.91992,-1.7871 z m 316.07227,7.95703 c -3.74635,0 -6.5,2.81761 -6.5,6.65039 0,2.22436 4.22312,6.34961 6.5,6.34961 0.67668,0 2.4161,-0.93236 3.86523,-2.07227 4.8517,-3.81631 2.33631,-10.92773 -3.86523,-10.92773 z m -18.00977,24 c -2.93613,0 -4.70234,2.73719 -3.37109,5.22461 1.46262,2.73299 5.71191,2.29305 6.45508,-0.66797 0.79883,-3.1829 -0.13073,-4.55664 -3.08399,-4.55664 z M 271.53125,199.0918 c -1.43545,0.0368 -2.9301,0.4985 -4.37109,1.50781 -5.34099,3.74098 -4.73056,10.88524 1.17773,13.78516 3.7903,1.86034 6.39129,1.30154 9.41406,-2.02344 5.11567,-5.62714 -4.4e-4,-13.42904 -6.2207,-13.26953 z m 343.42187,37.90625 c -2.5535,0 -6.95507,4.28138 -6.95507,6.76562 0,2.62227 3.65946,6.23438 6.3164,6.23438 1.23121,0 3.23858,-0.70046 4.46094,-1.55664 4.33447,-3.03598 1.52643,-11.44336 -3.82227,-11.44336 z m -326.5039,35.01367 c -1.91281,-0.0357 -3.85077,0.72439 -4.89063,2.20898 -2.09516,2.99125 -1.95923,5.37476 0.44336,7.77735 2.43177,2.43177 5.71103,2.56904 8.16993,0.34375 2.24354,-2.03039 2.3795,-6.65166 0.25781,-8.77344 -1.02046,-1.02044 -2.49273,-1.52891 -3.98047,-1.55664 z m -0.10156,29.79883 c -2.05897,0.0502 -4.17484,0.56319 -6.2168,1.61914 -8.31379,4.29924 -9.54707,16.35452 -2.33984,22.87695 4.27169,3.86585 11.34814,4.2165 16.14843,0.80078 4.4095,-3.13762 6.39453,-6.7428 6.39453,-11.61133 0,-8.12688 -6.63286,-13.86499 -13.98632,-13.68554 z m 29.9375,10.20117 c -3.463,-0.0166 -5.28516,2.08288 -5.28516,6.08984 0,5.36545 7.03747,7.85707 11,3.89453 2.30583,-2.30581 2.4405,-3.29566 0.85156,-6.31445 -1.55968,-2.96315 -2.79171,-3.65194 -6.5664,-3.66992 z m -5.83008,96.85156 c -1.56437,0.0586 -3.3089,0.89677 -5,2.58789 -3.16831,3.16831 -3.11111,5.88408 0.17969,8.47266 3.17775,2.4996 5.16061,2.60357 8.25585,0.43555 1.98292,-1.38889 2.25516,-2.24224 1.79883,-5.64454 -0.52095,-3.8839 -2.62709,-5.94918 -5.23437,-5.85156 z"
       id="rect1012"
       inkscape:connector-curvature="0"
       sodipodi:nodetypes="scsccccssccccscscccccccccccccsscccscccsccccccccccssccccccccscccccccccscscssscssccsssccsssscsccssccccccsccsccccccccc"
       transform="matrix(0.26458585,0,0,0.26458585,-9.6503937e-4,0)" />
  </g>
  <g
     inkscape:groupmode="layer"
     id="layer3"
     inkscape:label="hand2"
     style="display:inline">
    <path
       style="fill:#ffb380;fill-opacity:1;stroke:#b26f08;stroke-width:3;stroke-miterlimit:4;stroke-dasharray:none;stroke-opacity:1"
       d="m 408.23633,125.99805 c -6.33957,0 -13.31122,4.26835 -16.18945,9.91015 -2.53963,4.97794 -2.67135,12.46101 -0.29688,16.8711 0.96249,1.78761 8.35444,11.45568 16.42773,21.48437 17.29454,21.48336 73.3387,91.53211 79.82227,99.76953 19.64111,24.95434 18.99805,24.01069 18.99805,27.99024 0,2.94567 -0.60787,4.30603 -2.63477,5.90039 -5.82102,4.57881 -8.55683,2.85538 -21.50586,-13.55078 -5.6972,-7.21825 -20.96185,-26.34347 -33.92187,-42.5 -12.96003,-16.15653 -36.02407,-45.0049 -51.25391,-64.10743 -21.42873,-26.87766 -28.58562,-35.18842 -31.64648,-36.75 -11.51982,-5.87696 -25.55954,1.97635 -26.81055,14.9961 -0.64996,6.76414 0.75347,9.65059 10.75,22.12695 4.68925,5.85251 14.20562,17.77765 21.14844,26.5 6.94281,8.72235 17.67148,22.15945 23.83984,29.85938 6.16832,7.69992 15.11133,18.87294 19.875,24.83007 4.76367,5.95718 12.71665,15.85726 17.67383,22 C 461.10361,326.75799 465,332.03951 465,335.37695 c 0,5.60915 -6.08556,9.59733 -11.16406,7.31641 -2.20617,-0.99083 -45.6214,-53.85421 -58.77539,-71.56641 -1.89122,-2.54656 -6.61627,-8.50813 -10.5,-13.24804 -3.88373,-4.73992 -15.54029,-19.19204 -25.9043,-32.11719 -12.73942,-15.88754 -20.0729,-24.19187 -22.63672,-25.63281 -7.29378,-4.09932 -18.20165,-1.75085 -23.26953,5.00976 -3.16472,4.2218 -4.01957,7.01945 -3.9043,12.76367 0.11524,5.74267 -0.50761,4.86638 33.94922,47.8125 15.23774,18.99198 28.59802,35.71189 29.68946,37.15625 1.79892,2.38066 22.52445,28.35705 71.46679,89.57618 C 460.67221,413.36263 461.5,414.605 461.5,418.7793 c 0,3.68462 -0.51896,4.84469 -3.26562,7.29882 -4.97978,4.44944 -8.26298,3.96318 -16.60938,-2.46093 -6.10652,-4.7001 -37.69569,-29.78365 -48.625,-38.61133 -15.82616,-12.78295 -27.2296,-19.29942 -40.06445,-22.89258 -12.23599,-3.42547 -23.95768,-2.3689 -29.18555,2.62891 -2.30715,2.20563 -2.75,3.46206 -2.75,7.80469 0,4.90559 0.25083,5.40487 4.79688,9.5625 2.63808,2.41275 11.97569,10.04823 20.75,16.96874 47.74127,38.62851 91.59873,73.0485 133.55078,108.91407 0,0 151.05235,0.005 279.51068,0.008 -13.68644,-18.13607 -30.19658,-38.55726 -45.44232,-57.47857 -8.43141,-10.46299 -16.4429,-21.19463 -17.80469,-23.8496 -1.9063,-3.7166 -2.7967,-7.85827 -3.8711,-18 -2.18345,-20.61025 -7.43179,-35.89744 -17.27929,-50.33204 -2.19188,-3.2129 -19.82214,-25.63907 -55.36719,-68.14843 -35.54505,-42.50936 -46.34583,-55.99381 -57.3457,-69.65235 -18.9051,-23.47437 -29.18978,-36.37354 -39.5,-49.54101 -10.34069,-13.2064 -23.97605,-29.68163 -26.64063,-32.18946 -1.57242,-1.47991 -4.88246,-3.22271 -7.35742,-3.87304 -14.70494,-3.86393 -28.15183,12.6845 -21.20898,26.10156 1.42078,2.74569 22.35226,29.33903 46.4082,58.96094 19.58124,24.11189 34.91484,43.95821 35.42969,45.85547 1.53311,5.64968 -4.16967,11.2836 -9.88086,9.76171 -3.21646,-0.85712 -3.48468,-1.12161 -11.83985,-11.61718 -4.1594,-5.22495 -13.82873,-17.29475 -21.48632,-26.82032 -7.65763,-9.52556 -15.04882,-18.82634 -16.42383,-20.66992 -2.21063,-2.96399 -11.25613,-14.27238 -57.86524,-72.33203 -12.6399,-15.74514 -15.83615,-18.17773 -23.89648,-18.17773 z"
       id="path1083"
       transform="matrix(0.26458585,0,0,0.26458585,-9.6503937e-4,0)"
       inkscape:connector-curvature="0"
       sodipodi:nodetypes="cccscsssssccssccsscccsscsccsscscccsccccccccscscscsccsccscc" />
  </g>
</svg>
